<svg version="1.1" id="Layer_1" xmlns="http://www.w3.org/2000/svg" xmlns:xlink="http://www.w3.org/1999/xlink" x="0px" y="0px"
	 width="100%" viewBox="0 0 1425 1061" enable-background="new 0 0 1425 1061" xml:space="preserve">
<path fill="#25527B" opacity="1.000000" stroke="none" 
	d="
M1418.000000,1062.000000 
	C945.715393,1062.000000 473.430786,1062.000000 1.073100,1062.000000 
	C1.073100,708.418579 1.073100,354.837128 1.073100,1.000000 
	C473.032684,1.000000 945.065430,1.000000 1417.549072,1.453632 
	C1418.000000,355.271515 1418.000000,708.635742 1418.000000,1062.000000 
M551.580078,230.126968 
	C538.501526,237.715820 525.537292,245.513824 512.275330,252.767303 
	C508.246887,254.970612 507.133972,257.502441 507.140930,261.821381 
	C507.255157,332.644135 507.403870,403.468201 507.000824,474.288849 
	C506.948212,483.541046 508.247742,490.266785 517.802124,493.404053 
	C520.273560,494.215515 522.487610,495.845276 524.775818,497.174957 
	C553.377136,513.795532 581.939941,530.482544 610.573730,547.046875 
	C641.780823,565.099854 673.082092,582.990234 704.244873,601.118958 
	C707.147217,602.807312 709.049072,602.696838 711.859924,601.045166 
	C729.487305,590.686829 747.241821,580.544800 764.967102,570.353455 
	C788.297241,556.939514 811.651001,543.566589 834.972656,530.137939 
	C858.435181,516.628296 881.846375,503.029327 905.349182,489.590271 
	C908.277771,487.915619 908.829834,485.778778 908.826599,482.676453 
	C908.749512,409.020691 908.730957,335.364716 908.856567,261.709076 
	C908.864014,257.314148 907.808594,254.508347 903.576111,252.758865 
	C900.230286,251.375916 897.178528,249.271149 894.022156,247.442093 
	C855.605896,225.180573 817.202148,202.897430 778.778748,180.648148 
	C756.180359,167.562469 733.579407,154.480423 710.876953,141.577286 
	C709.399719,140.737701 706.623962,140.710541 705.156982,141.544739 
	C680.588684,155.515808 656.130493,169.680649 631.652405,183.810150 
	C605.158142,199.103439 578.668518,214.404755 551.580078,230.126968 
M336.801636,703.962524 
	C335.455719,703.359863 334.130493,702.299194 332.760193,702.237366 
	C327.938293,702.019714 323.083008,702.400940 318.274963,702.062866 
	C314.105530,701.769714 312.904755,703.187378 312.945831,707.360168 
	C313.154144,728.516724 313.061890,749.676331 313.050751,770.834839 
	C313.050140,772.033203 312.834229,773.231384 312.590942,775.750854 
	C308.684601,769.421082 305.465210,764.244446 302.284973,759.043945 
	C291.284882,741.055664 280.317963,723.047058 269.261749,705.093384 
	C268.542999,703.926208 267.205383,702.367371 266.109985,702.330017 
	C258.860107,702.083008 251.597748,702.202271 244.390961,702.202271 
	C244.390961,740.531921 244.390961,778.079651 244.390961,815.734131 
	C252.233902,815.734131 259.664093,815.734131 267.873413,815.734131 
	C267.873413,791.880554 267.873413,768.288025 267.873413,744.695496 
	C272.239227,749.684448 275.517029,754.850952 278.717529,760.064880 
	C289.418884,777.498718 300.064148,794.967041 310.829498,812.361267 
	C311.714355,813.791016 313.299347,815.720520 314.635132,815.782715 
	C321.878845,816.119873 329.146484,815.942749 336.858185,815.942749 
	C336.858185,778.444092 336.858185,741.658569 336.801636,703.962524 
M737.185669,812.721008 
	C748.662720,808.578125 757.228638,801.025085 762.753052,790.220642 
	C769.153931,777.702271 770.206238,764.404236 769.165100,750.463379 
	C767.123352,723.123779 746.877075,701.131714 716.989807,701.979431 
	C707.169250,702.257996 697.324829,702.230347 687.508240,701.875671 
	C683.024109,701.713684 681.933655,703.123169 681.955811,707.490051 
	C682.130798,741.973877 682.047729,776.458923 682.063721,810.943604 
	C682.064453,812.532593 682.252747,814.121460 682.368958,815.950989 
	C695.583801,815.950989 708.240601,816.235291 720.873901,815.814026 
	C726.086487,815.640259 731.248535,813.951172 737.185669,812.721008 
M915.961731,734.755859 
	C915.216553,733.548035 914.519958,731.331665 913.718323,731.293030 
	C907.635254,730.999573 901.531677,731.132446 895.637085,731.132446 
	C895.072510,733.621277 894.685852,735.325928 894.198303,737.475159 
	C891.859863,735.983948 889.992920,734.693481 888.034485,733.560974 
	C876.107666,726.663635 855.068665,728.019958 846.133301,743.455627 
	C835.072754,762.562439 834.830688,782.578308 845.306580,802.034607 
	C854.123657,818.410095 875.670105,822.374329 890.525635,811.125488 
	C891.190491,810.622009 891.999084,810.308350 892.916382,809.811035 
	C893.186951,819.869690 890.769409,825.980530 884.793518,828.723877 
	C873.049438,834.115051 862.819275,830.817932 853.526306,821.985168 
	C851.165955,825.126221 849.221924,828.229797 846.767212,830.856140 
	C843.293701,834.572449 843.964050,837.267700 847.784180,840.196533 
	C857.452454,847.609009 868.556702,849.613403 880.275879,848.866394 
	C901.612610,847.506287 916.535950,833.953735 916.065369,811.689392 
	C915.530212,786.370422 915.952820,761.031311 915.961731,734.755859 
M1062.031616,736.483398 
	C1054.898682,741.589966 1049.574585,747.669373 1050.362305,757.754883 
	C1056.632812,757.754883 1062.438477,757.596252 1068.229370,757.819031 
	C1071.317749,757.937927 1072.714233,756.771057 1073.494263,753.866638 
	C1073.935425,752.223999 1075.014282,750.408691 1076.356812,749.417114 
	C1080.235840,746.552124 1088.638672,746.497314 1092.001587,748.951111 
	C1096.589233,752.298523 1098.173706,758.153992 1096.071289,765.019592 
	C1091.750488,765.019592 1087.214478,764.548828 1082.817505,765.130371 
	C1076.281372,765.994812 1069.598022,766.900513 1063.421509,769.059387 
	C1054.093872,772.319763 1049.346313,779.879456 1048.179688,789.507874 
	C1047.030396,798.992126 1050.046387,806.822571 1058.182129,812.390198 
	C1069.165283,819.906372 1083.154053,820.078918 1094.229126,812.744385 
	C1095.395996,811.971619 1096.641235,811.317444 1097.406616,810.868469 
	C1099.257812,813.158813 1100.593628,816.375122 1102.178833,816.503113 
	C1109.191650,817.069580 1116.276123,816.748230 1124.026855,816.748230 
	C1119.217529,805.463928 1120.032959,794.431213 1119.984619,783.488098 
	C1119.944214,774.324402 1120.232666,765.145264 1119.784424,756.001953 
	C1119.422607,748.623596 1116.595215,742.087158 1110.229248,737.675903 
	C1094.725708,726.932983 1078.786621,727.992188 1062.031616,736.483398 
M603.954895,803.430542 
	C611.177307,794.047668 612.372742,783.219666 612.134033,771.804382 
	C611.582825,745.449768 594.741028,727.379028 564.586060,731.217712 
	C553.548340,732.622742 545.052856,738.207703 539.071289,747.611511 
	C533.414978,756.503906 531.841248,766.310669 532.004517,776.676514 
	C532.436462,804.093872 552.060974,821.463623 579.078125,817.756958 
	C588.877136,816.412476 597.681091,812.685791 603.954895,803.430542 
M503.767853,719.554260 
	C503.760590,717.556152 503.941040,715.531311 503.661896,713.571899 
	C503.534454,712.677429 502.517487,711.211243 501.875153,711.195679 
	C494.804840,711.024536 487.728821,711.088257 480.036469,711.088257 
	C480.036469,718.445007 480.036469,725.004028 480.036469,731.707336 
	C475.691010,731.944214 471.978363,732.146545 468.429474,732.340027 
	C468.429474,738.089722 468.429474,743.174561 468.429474,748.815918 
	C470.750305,748.815918 472.733246,749.017639 474.660156,748.774719 
	C478.948822,748.234070 480.512909,749.692505 480.383850,754.248291 
	C480.063324,765.562500 479.935760,776.906189 480.409882,788.209534 
	C480.677460,794.588318 481.077911,801.437744 483.560455,807.143066 
	C488.007721,817.363586 506.886108,821.860535 517.069946,816.055542 
	C517.881897,815.592712 518.708679,814.362183 518.741577,813.459778 
	C518.909668,808.850281 518.819275,804.231323 518.819275,799.122925 
	C516.451782,799.122925 514.672913,799.108032 512.894287,799.125488 
	C505.601868,799.197144 503.798248,797.434570 503.773773,790.019958 
	C503.740234,779.862366 503.760834,769.704712 503.760040,759.547058 
	C503.759277,749.301270 503.765747,749.388794 514.062439,748.740906 
	C515.383972,748.657654 517.627747,747.188354 517.711243,746.212830 
	C518.101562,741.651794 517.884521,737.038818 517.884521,732.371704 
	C516.350891,732.184265 515.547974,732.022400 514.740784,731.997192 
	C503.780823,731.654480 503.780670,731.659119 503.767853,719.554260 
M1001.145996,812.397400 
	C1007.104126,817.576843 1014.262268,818.246826 1021.722717,818.000916 
	C1032.820679,817.635071 1032.881836,817.629150 1032.890381,806.910950 
	C1032.890869,806.245178 1032.800903,805.564758 1032.906494,804.916077 
	C1033.703003,800.022766 1031.630859,798.695374 1026.843140,799.002930 
	C1019.532227,799.472656 1017.802673,797.471375 1017.776184,789.978394 
	C1017.735657,778.494385 1017.753967,767.010071 1017.759216,755.525879 
	C1017.762268,748.848450 1017.773010,748.873352 1024.571777,748.829468 
	C1032.759277,748.776611 1031.888062,749.623535 1031.909058,741.738892 
	C1031.934448,732.227234 1031.910522,732.083191 1022.265259,732.076538 
	C1018.824036,732.074158 1017.523621,731.092102 1017.691711,727.542969 
	C1017.947083,722.150391 1017.758484,716.736816 1017.758484,711.388123 
	C1009.456238,711.388123 1002.066284,711.388123 994.873352,711.388123 
	C994.873352,716.937622 994.952026,722.083862 994.844604,727.226196 
	C994.777405,730.440552 993.583740,732.563660 989.705383,732.065430 
	C987.337769,731.761292 984.899231,732.009338 982.567139,732.009338 
	C982.567139,738.111633 982.567139,743.319824 982.567139,748.594971 
	C983.851501,748.688293 984.670471,748.789062 985.490845,748.801025 
	C994.894043,748.937988 994.895203,748.934387 994.911682,758.430481 
	C994.933350,770.913025 995.015259,783.395874 994.946838,795.877930 
	C994.913574,801.946655 996.504395,807.345581 1001.145996,812.397400 
M414.129578,731.991028 
	C410.890137,731.991028 407.650696,731.991028 404.484253,731.991028 
	C404.484253,738.048950 404.484253,743.134521 404.484253,748.824463 
	C406.921997,748.824463 409.076202,749.067871 411.155243,748.775879 
	C416.138031,748.076233 417.189606,750.288940 417.103210,754.929321 
	C416.839630,769.085510 416.919128,783.252991 417.157501,797.411194 
	C417.261322,803.576416 419.292847,809.137268 424.492889,813.094727 
	C433.191498,819.714600 442.893066,818.540894 452.627319,816.628662 
	C453.535797,816.450195 454.771240,814.869812 454.818085,813.890747 
	C455.046051,809.125305 454.921112,804.343018 454.921112,799.107422 
	C451.989380,799.107422 449.699432,799.180542 447.415680,799.092590 
	C442.228699,798.892761 439.962555,796.848999 439.919617,791.813843 
	C439.807373,778.652466 439.917053,765.489258 439.836670,752.327454 
	C439.821014,749.765320 440.711426,748.694824 443.324493,748.799316 
	C446.744141,748.936096 450.173401,748.832764 453.564087,748.832764 
	C453.564087,742.786194 453.564087,737.564880 453.564087,732.002930 
	C450.321869,732.002930 447.493530,731.837769 444.692474,732.043762 
	C440.991486,732.316040 439.624268,730.857544 439.800201,727.129883 
	C440.047852,721.882141 439.862823,716.614014 439.862823,710.990967 
	C437.046967,710.990967 435.067566,710.942749 433.091278,711.000305 
	C427.968231,711.149536 420.998779,709.425598 418.251404,712.070068 
	C415.579102,714.642212 417.374084,721.722168 416.909912,726.795593 
	C416.751038,728.532104 415.691284,730.186218 414.129578,731.991028 
M1168.115479,726.500000 
	C1168.115479,716.435974 1168.115479,706.371887 1168.115479,696.380859 
	C1160.238281,696.380859 1153.327026,696.380859 1146.373047,696.380859 
	C1146.373047,736.392212 1146.373047,776.042114 1146.373047,815.646179 
	C1153.780884,815.646179 1160.698364,815.646179 1168.115601,815.646179 
	C1168.115601,786.029846 1168.115601,756.764893 1168.115479,726.500000 
M808.405945,731.187805 
	C803.473755,731.187805 798.541626,731.187805 793.403198,731.187805 
	C793.403198,759.750793 793.403198,787.609985 793.403198,815.665527 
	C800.969482,815.665527 808.183533,815.665527 815.717346,815.665527 
	C815.806274,813.717346 815.944214,812.092529 815.945068,810.467590 
	C815.958008,786.165588 815.957703,761.863647 815.948792,737.561646 
	C815.946472,731.197021 815.927917,731.197021 808.405945,731.187805 
M366.848633,731.198975 
	C362.902557,731.197937 364.048279,734.203552 364.043335,736.255188 
	C363.983032,761.198059 363.998840,786.141235 364.014526,811.084290 
	C364.015442,812.534058 364.185364,813.983704 364.293945,815.707642 
	C371.808685,815.707642 379.021393,815.707642 386.090546,815.707642 
	C386.398315,815.132935 386.683105,814.849060 386.683807,814.564514 
	C386.750427,787.963501 386.779572,761.362305 386.863770,734.761353 
	C386.873108,731.807373 385.304169,731.128052 382.747406,731.169067 
	C377.760101,731.249207 372.770569,731.192017 366.848633,731.198975 
M953.490112,731.200134 
	C951.992004,731.196533 950.493896,731.193237 948.995789,731.189209 
	C941.896484,731.170044 941.905396,731.169983 941.906494,738.046387 
	C941.910217,762.016174 941.900757,785.985962 941.919128,809.955750 
	C941.920593,811.867798 942.096558,813.779724 942.189453,815.651733 
	C949.760437,815.651733 956.672424,815.651733 964.112793,815.651733 
	C964.112793,813.518799 964.112976,811.729553 964.112793,809.940308 
	C964.110779,786.969238 964.108154,763.998230 964.106934,741.027161 
	C964.106384,731.200256 964.107666,731.200256 953.490112,731.200134 
M810.916992,699.201843 
	C807.990540,698.822327 805.036560,697.978699 802.142883,698.150757 
	C793.610718,698.658020 788.865601,707.901245 793.015198,715.336914 
	C796.034363,720.747009 800.974182,722.188171 806.532898,721.617371 
	C811.474976,721.109863 815.253662,718.356934 816.573608,713.347473 
	C818.049927,707.744690 816.867493,702.844666 810.916992,699.201843 
M367.370789,719.436462 
	C370.250092,719.987549 373.124329,720.968506 376.009766,721.002747 
	C382.574707,721.080627 387.310211,717.035278 387.903259,711.398743 
	C388.512451,705.608582 385.511322,700.332642 380.616058,698.587708 
	C374.822693,696.522522 366.802338,698.795837 364.057648,703.280945 
	C360.857666,708.510010 361.745789,713.688538 367.370789,719.436462 
M940.570007,706.327698 
	C939.624084,712.776001 941.395569,717.372803 945.712952,719.673096 
	C949.971802,721.942200 958.129028,721.532654 961.364990,718.887329 
	C965.201538,715.751099 966.815125,710.364441 965.248230,705.924072 
	C963.614990,701.295532 959.363037,698.237915 954.298523,698.049805 
	C946.701416,697.767639 943.300110,699.673645 940.570007,706.327698 
z"/>
<path fill="#F2F6FB" opacity="1.000000" stroke="none" 
	d="
M1420.000000,1.000000 
	C1421.999146,1.000000 1423.998169,1.000000 1425.994507,1.000000 
	C1425.991699,354.666656 1425.991699,708.333313 1425.987549,1062.000000 
	C1424.317627,1062.000000 1422.651733,1062.000000 1420.496216,1061.546387 
	C1420.004395,707.728516 1420.002197,354.364258 1420.000000,1.000000 
z"/>
<path fill="#315069" opacity="1.000000" stroke="none" 
	d="
M1419.666626,1.000000 
	C1420.002197,354.364258 1420.004395,707.728516 1420.003296,1061.546387 
	C1419.555542,1062.000000 1419.111206,1062.000000 1418.333374,1062.000000 
	C1418.000000,708.635742 1418.000000,355.271515 1418.000000,1.453632 
	C1418.444458,1.000000 1418.888794,1.000000 1419.666626,1.000000 
z"/>
<path fill="#5EAABE" opacity="1.000000" stroke="none" 
	d="
M551.878479,229.914764 
	C578.668518,214.404755 605.158142,199.103439 631.652405,183.810150 
	C656.130493,169.680649 680.588684,155.515808 705.156982,141.544739 
	C706.623962,140.710541 709.399719,140.737701 710.876953,141.577286 
	C733.579407,154.480423 756.180359,167.562469 778.778748,180.648148 
	C817.202148,202.897430 855.605896,225.180573 894.022156,247.442093 
	C897.178528,249.271149 900.230286,251.375916 903.576111,252.758865 
	C907.808594,254.508347 908.864014,257.314148 908.856567,261.709076 
	C908.730957,335.364716 908.749512,409.020691 908.826599,482.676453 
	C908.829834,485.778778 908.277771,487.915619 905.349182,489.590271 
	C881.846375,503.029327 858.435181,516.628296 834.972656,530.137939 
	C811.651001,543.566589 788.297241,556.939514 764.967102,570.353455 
	C747.241821,580.544800 729.487305,590.686829 711.859924,601.045166 
	C709.049072,602.696838 707.147217,602.807312 704.244873,601.118958 
	C673.082092,582.990234 641.780823,565.099854 610.573730,547.046875 
	C581.939941,530.482544 553.377136,513.795532 524.775818,497.174957 
	C522.487610,495.845276 520.273560,494.215515 517.802124,493.404053 
	C508.247742,490.266785 506.948212,483.541046 507.000824,474.288849 
	C507.403870,403.468201 507.255157,332.644135 507.140930,261.821381 
	C507.133972,257.502441 508.246887,254.970612 512.275330,252.767303 
	C525.537292,245.513824 538.501526,237.715820 551.878479,229.914764 
M525.393921,473.484375 
	C526.339050,475.188690 526.848206,477.634216 528.295166,478.485352 
	C547.785828,489.949890 567.409180,501.188721 586.995483,512.490845 
	C625.733948,534.844543 664.489563,557.168701 703.172180,579.618652 
	C706.557373,581.583313 709.220093,581.777344 712.694214,579.723999 
	C734.149475,567.043152 755.695312,554.514221 777.277405,542.049561 
	C812.556396,521.674377 847.755371,501.152954 883.317627,481.282837 
	C889.569336,477.789734 890.933411,473.627899 890.901489,467.499603 
	C890.797363,447.500641 890.863892,427.500763 890.864014,407.501251 
	C890.864258,363.835632 890.859314,320.170013 890.869141,276.504395 
	C890.870605,269.970917 890.296326,264.066284 882.594055,261.473572 
	C878.736389,260.175018 875.385010,257.389496 871.780823,255.317993 
	C842.228821,238.333160 812.643188,221.406509 783.124023,204.364822 
	C759.205505,190.556396 735.399475,176.552536 711.417297,162.856323 
	C709.683777,161.866318 706.467041,161.845444 704.709473,162.796356 
	C695.065735,168.013885 685.673096,173.694244 676.173889,179.180435 
	C647.359619,195.821854 618.516846,212.414047 589.726013,229.095917 
	C579.093750,235.256409 568.575256,241.613312 557.286255,247.966766 
	C548.516663,252.953476 539.818176,258.071808 530.944275,262.865417 
	C527.119385,264.931610 525.693237,267.538940 525.701965,271.970795 
	C525.834045,338.956543 525.785217,405.942627 525.393921,473.484375 
z"/>
<path fill="#5DAABE" opacity="1.000000" stroke="none" 
	d="
M336.829895,704.417725 
	C336.858185,741.658569 336.858185,778.444092 336.858185,815.942749 
	C329.146484,815.942749 321.878845,816.119873 314.635132,815.782715 
	C313.299347,815.720520 311.714355,813.791016 310.829498,812.361267 
	C300.064148,794.967041 289.418884,777.498718 278.717529,760.064880 
	C275.517029,754.850952 272.239227,749.684448 267.873413,744.695496 
	C267.873413,768.288025 267.873413,791.880554 267.873413,815.734131 
	C259.664093,815.734131 252.233902,815.734131 244.390961,815.734131 
	C244.390961,778.079651 244.390961,740.531921 244.390961,702.202271 
	C251.597748,702.202271 258.860107,702.083008 266.109985,702.330017 
	C267.205383,702.367371 268.542999,703.926208 269.261749,705.093384 
	C280.317963,723.047058 291.284882,741.055664 302.284973,759.043945 
	C305.465210,764.244446 308.684601,769.421082 312.590942,775.750854 
	C312.834229,773.231384 313.050140,772.033203 313.050751,770.834839 
	C313.061890,749.676331 313.154144,728.516724 312.945831,707.360168 
	C312.904755,703.187378 314.105530,701.769714 318.274963,702.062866 
	C323.083008,702.400940 327.938293,702.019714 332.760193,702.237366 
	C334.130493,702.299194 335.455719,703.359863 336.829895,704.417725 
z"/>
<path fill="#5EAABE" opacity="1.000000" stroke="none" 
	d="
M736.809570,812.836121 
	C731.248535,813.951172 726.086487,815.640259 720.873901,815.814026 
	C708.240601,816.235291 695.583801,815.950989 682.368958,815.950989 
	C682.252747,814.121460 682.064453,812.532593 682.063721,810.943604 
	C682.047729,776.458923 682.130798,741.973877 681.955811,707.490051 
	C681.933655,703.123169 683.024109,701.713684 687.508240,701.875671 
	C697.324829,702.230347 707.169250,702.257996 716.989807,701.979431 
	C746.877075,701.131714 767.123352,723.123779 769.165100,750.463379 
	C770.206238,764.404236 769.153931,777.702271 762.753052,790.220642 
	C757.228638,801.025085 748.662720,808.578125 736.809570,812.836121 
M730.519653,723.774109 
	C722.681824,720.015930 714.482300,720.898926 705.899414,721.350525 
	C705.899414,723.694885 705.899292,725.505920 705.899475,727.317017 
	C705.901306,747.268921 705.900818,767.220886 705.906128,787.172791 
	C705.908752,797.070557 705.913574,797.070557 715.959534,797.028137 
	C731.670166,796.961792 741.323120,789.890991 743.905090,774.371643 
	C745.492859,764.827820 745.530640,754.764954 744.498169,745.124329 
	C743.576843,736.522156 739.876160,728.408020 730.519653,723.774109 
z"/>
<path fill="#5DAABE" opacity="1.000000" stroke="none" 
	d="
M915.960449,735.228394 
	C915.952820,761.031311 915.530212,786.370422 916.065369,811.689392 
	C916.535950,833.953735 901.612610,847.506287 880.275879,848.866394 
	C868.556702,849.613403 857.452454,847.609009 847.784180,840.196533 
	C843.964050,837.267700 843.293701,834.572449 846.767212,830.856140 
	C849.221924,828.229797 851.165955,825.126221 853.526306,821.985168 
	C862.819275,830.817932 873.049438,834.115051 884.793518,828.723877 
	C890.769409,825.980530 893.186951,819.869690 892.916382,809.811035 
	C891.999084,810.308350 891.190491,810.622009 890.525635,811.125488 
	C875.670105,822.374329 854.123657,818.410095 845.306580,802.034607 
	C834.830688,782.578308 835.072754,762.562439 846.133301,743.455627 
	C855.068665,728.019958 876.107666,726.663635 888.034485,733.560974 
	C889.992920,734.693481 891.859863,735.983948 894.198303,737.475159 
	C894.685852,735.325928 895.072510,733.621277 895.637085,731.132446 
	C901.531677,731.132446 907.635254,730.999573 913.718323,731.293030 
	C914.519958,731.331665 915.216553,733.548035 915.960449,735.228394 
M861.188293,778.966431 
	C861.796875,781.720764 862.192871,784.543823 863.057922,787.215149 
	C864.905396,792.920410 868.442139,797.284546 874.518433,798.591919 
	C880.725037,799.927185 886.551208,798.803650 890.843384,793.670044 
	C892.005798,792.279724 892.919373,790.209106 892.957642,788.429443 
	C893.172302,778.439575 893.397766,768.427307 892.888733,758.459961 
	C892.754395,755.829651 890.643738,752.391296 888.396545,750.934570 
	C878.464172,744.495911 867.596191,747.849426 863.740540,759.013489 
	C861.685791,764.963013 861.895813,771.694702 861.188293,778.966431 
z"/>
<path fill="#5EAABE" opacity="1.000000" stroke="none" 
	d="
M1062.328613,736.269775 
	C1078.786621,727.992188 1094.725708,726.932983 1110.229248,737.675903 
	C1116.595215,742.087158 1119.422607,748.623596 1119.784424,756.001953 
	C1120.232666,765.145264 1119.944214,774.324402 1119.984619,783.488098 
	C1120.032959,794.431213 1119.217529,805.463928 1124.026855,816.748230 
	C1116.276123,816.748230 1109.191650,817.069580 1102.178833,816.503113 
	C1100.593628,816.375122 1099.257812,813.158813 1097.406616,810.868469 
	C1096.641235,811.317444 1095.395996,811.971619 1094.229126,812.744385 
	C1083.154053,820.078918 1069.165283,819.906372 1058.182129,812.390198 
	C1050.046387,806.822571 1047.030396,798.992126 1048.179688,789.507874 
	C1049.346313,779.879456 1054.093872,772.319763 1063.421509,769.059387 
	C1069.598022,766.900513 1076.281372,765.994812 1082.817505,765.130371 
	C1087.214478,764.548828 1091.750488,765.019592 1096.071289,765.019592 
	C1098.173706,758.153992 1096.589233,752.298523 1092.001587,748.951111 
	C1088.638672,746.497314 1080.235840,746.552124 1076.356812,749.417114 
	C1075.014282,750.408691 1073.935425,752.223999 1073.494263,753.866638 
	C1072.714233,756.771057 1071.317749,757.937927 1068.229370,757.819031 
	C1062.438477,757.596252 1056.632812,757.754883 1050.362305,757.754883 
	C1049.574585,747.669373 1054.898682,741.589966 1062.328613,736.269775 
M1094.620850,795.936279 
	C1099.474243,790.544556 1096.198120,784.356750 1097.130005,777.198486 
	C1090.204468,778.145569 1084.036621,778.315063 1078.290161,779.958435 
	C1072.160767,781.711304 1069.539429,787.954407 1071.175903,794.022400 
	C1072.398315,798.555115 1077.507324,801.837708 1083.085571,800.734619 
	C1086.873657,799.985474 1090.404175,797.933289 1094.620850,795.936279 
z"/>
<path fill="#5DAABE" opacity="1.000000" stroke="none" 
	d="
M603.735718,803.715393 
	C597.681091,812.685791 588.877136,816.412476 579.078125,817.756958 
	C552.060974,821.463623 532.436462,804.093872 532.004517,776.676514 
	C531.841248,766.310669 533.414978,756.503906 539.071289,747.611511 
	C545.052856,738.207703 553.548340,732.622742 564.586060,731.217712 
	C594.741028,727.379028 611.582825,745.449768 612.134033,771.804382 
	C612.372742,783.219666 611.177307,794.047668 603.735718,803.715393 
M589.892334,773.567322 
	C588.955627,768.697693 588.502808,763.668823 586.965210,758.996948 
	C584.830322,752.510254 579.761108,749.273560 572.920898,749.023865 
	C566.161377,748.777100 560.724548,751.136292 558.106079,757.718628 
	C553.542847,769.190002 553.348145,780.763123 558.586670,792.084961 
	C561.351746,798.061035 566.598633,800.126953 572.947083,799.926453 
	C578.906006,799.738159 584.053040,797.751831 586.004700,791.791748 
	C587.840332,786.186096 588.645630,780.243103 589.892334,773.567322 
z"/>
<path fill="#5EAABF" opacity="1.000000" stroke="none" 
	d="
M503.768066,720.043091 
	C503.780670,731.659119 503.780823,731.654480 514.740784,731.997192 
	C515.547974,732.022400 516.350891,732.184265 517.884521,732.371704 
	C517.884521,737.038818 518.101562,741.651794 517.711243,746.212830 
	C517.627747,747.188354 515.383972,748.657654 514.062439,748.740906 
	C503.765747,749.388794 503.759277,749.301270 503.760040,759.547058 
	C503.760834,769.704712 503.740234,779.862366 503.773773,790.019958 
	C503.798248,797.434570 505.601868,799.197144 512.894287,799.125488 
	C514.672913,799.108032 516.451782,799.122925 518.819275,799.122925 
	C518.819275,804.231323 518.909668,808.850281 518.741577,813.459778 
	C518.708679,814.362183 517.881897,815.592712 517.069946,816.055542 
	C506.886108,821.860535 488.007721,817.363586 483.560455,807.143066 
	C481.077911,801.437744 480.677460,794.588318 480.409882,788.209534 
	C479.935760,776.906189 480.063324,765.562500 480.383850,754.248291 
	C480.512909,749.692505 478.948822,748.234070 474.660156,748.774719 
	C472.733246,749.017639 470.750305,748.815918 468.429474,748.815918 
	C468.429474,743.174561 468.429474,738.089722 468.429474,732.340027 
	C471.978363,732.146545 475.691010,731.944214 480.036469,731.707336 
	C480.036469,725.004028 480.036469,718.445007 480.036469,711.088257 
	C487.728821,711.088257 494.804840,711.024536 501.875153,711.195679 
	C502.517487,711.211243 503.534454,712.677429 503.661896,713.571899 
	C503.941040,715.531311 503.760590,717.556152 503.768066,720.043091 
z"/>
<path fill="#5EAABF" opacity="1.000000" stroke="none" 
	d="
M1000.870117,812.155762 
	C996.504395,807.345581 994.913574,801.946655 994.946838,795.877930 
	C995.015259,783.395874 994.933350,770.913025 994.911682,758.430481 
	C994.895203,748.934387 994.894043,748.937988 985.490845,748.801025 
	C984.670471,748.789062 983.851501,748.688293 982.567139,748.594971 
	C982.567139,743.319824 982.567139,738.111633 982.567139,732.009338 
	C984.899231,732.009338 987.337769,731.761292 989.705383,732.065430 
	C993.583740,732.563660 994.777405,730.440552 994.844604,727.226196 
	C994.952026,722.083862 994.873352,716.937622 994.873352,711.388123 
	C1002.066284,711.388123 1009.456238,711.388123 1017.758484,711.388123 
	C1017.758484,716.736816 1017.947083,722.150391 1017.691711,727.542969 
	C1017.523621,731.092102 1018.824036,732.074158 1022.265259,732.076538 
	C1031.910522,732.083191 1031.934448,732.227234 1031.909058,741.738892 
	C1031.888062,749.623535 1032.759277,748.776611 1024.571777,748.829468 
	C1017.773010,748.873352 1017.762268,748.848450 1017.759216,755.525879 
	C1017.753967,767.010071 1017.735657,778.494385 1017.776184,789.978394 
	C1017.802673,797.471375 1019.532227,799.472656 1026.843140,799.002930 
	C1031.630859,798.695374 1033.703003,800.022766 1032.906494,804.916077 
	C1032.800903,805.564758 1032.890869,806.245178 1032.890381,806.910950 
	C1032.881836,817.629150 1032.820679,817.635071 1021.722717,818.000916 
	C1014.262268,818.246826 1007.104126,817.576843 1000.870117,812.155762 
z"/>
<path fill="#5EAABF" opacity="1.000000" stroke="none" 
	d="
M414.586365,731.934509 
	C415.691284,730.186218 416.751038,728.532104 416.909912,726.795593 
	C417.374084,721.722168 415.579102,714.642212 418.251404,712.070068 
	C420.998779,709.425598 427.968231,711.149536 433.091278,711.000305 
	C435.067566,710.942749 437.046967,710.990967 439.862823,710.990967 
	C439.862823,716.614014 440.047852,721.882141 439.800201,727.129883 
	C439.624268,730.857544 440.991486,732.316040 444.692474,732.043762 
	C447.493530,731.837769 450.321869,732.002930 453.564087,732.002930 
	C453.564087,737.564880 453.564087,742.786194 453.564087,748.832764 
	C450.173401,748.832764 446.744141,748.936096 443.324493,748.799316 
	C440.711426,748.694824 439.821014,749.765320 439.836670,752.327454 
	C439.917053,765.489258 439.807373,778.652466 439.919617,791.813843 
	C439.962555,796.848999 442.228699,798.892761 447.415680,799.092590 
	C449.699432,799.180542 451.989380,799.107422 454.921112,799.107422 
	C454.921112,804.343018 455.046051,809.125305 454.818085,813.890747 
	C454.771240,814.869812 453.535797,816.450195 452.627319,816.628662 
	C442.893066,818.540894 433.191498,819.714600 424.492889,813.094727 
	C419.292847,809.137268 417.261322,803.576416 417.157501,797.411194 
	C416.919128,783.252991 416.839630,769.085510 417.103210,754.929321 
	C417.189606,750.288940 416.138031,748.076233 411.155243,748.775879 
	C409.076202,749.067871 406.921997,748.824463 404.484253,748.824463 
	C404.484253,743.134521 404.484253,738.048950 404.484253,731.991028 
	C407.650696,731.991028 410.890137,731.991028 414.586365,731.934509 
z"/>
<path fill="#5EABBF" opacity="1.000000" stroke="none" 
	d="
M1168.115479,727.000000 
	C1168.115601,756.764893 1168.115601,786.029846 1168.115601,815.646179 
	C1160.698364,815.646179 1153.780884,815.646179 1146.373047,815.646179 
	C1146.373047,776.042114 1146.373047,736.392212 1146.373047,696.380859 
	C1153.327026,696.380859 1160.238281,696.380859 1168.115479,696.380859 
	C1168.115479,706.371887 1168.115479,716.435974 1168.115479,727.000000 
z"/>
<path fill="#5EAABF" opacity="1.000000" stroke="none" 
	d="
M808.888306,731.188599 
	C815.927917,731.197021 815.946472,731.197021 815.948792,737.561646 
	C815.957703,761.863647 815.958008,786.165588 815.945068,810.467590 
	C815.944214,812.092529 815.806274,813.717346 815.717346,815.665527 
	C808.183533,815.665527 800.969482,815.665527 793.403198,815.665527 
	C793.403198,787.609985 793.403198,759.750793 793.403198,731.187805 
	C798.541626,731.187805 803.473755,731.187805 808.888306,731.188599 
z"/>
<path fill="#5EAABE" opacity="1.000000" stroke="none" 
	d="
M367.315308,731.195312 
	C372.770569,731.192017 377.760101,731.249207 382.747406,731.169067 
	C385.304169,731.128052 386.873108,731.807373 386.863770,734.761353 
	C386.779572,761.362305 386.750427,787.963501 386.683807,814.564514 
	C386.683105,814.849060 386.398315,815.132935 386.090546,815.707642 
	C379.021393,815.707642 371.808685,815.707642 364.293945,815.707642 
	C364.185364,813.983704 364.015442,812.534058 364.014526,811.084290 
	C363.998840,786.141235 363.983032,761.198059 364.043335,736.255188 
	C364.048279,734.203552 362.902557,731.197937 367.315308,731.195312 
z"/>
<path fill="#5EABBF" opacity="1.000000" stroke="none" 
	d="
M953.978333,731.200928 
	C964.107666,731.200256 964.106384,731.200256 964.106934,741.027161 
	C964.108154,763.998230 964.110779,786.969238 964.112793,809.940308 
	C964.112976,811.729553 964.112793,813.518799 964.112793,815.651733 
	C956.672424,815.651733 949.760437,815.651733 942.189453,815.651733 
	C942.096558,813.779724 941.920593,811.867798 941.919128,809.955750 
	C941.900757,785.985962 941.910217,762.016174 941.906494,738.046387 
	C941.905396,731.169983 941.896484,731.170044 948.995789,731.189209 
	C950.493896,731.193237 951.992004,731.196533 953.978333,731.200928 
z"/>
<path fill="#5EA7BD" opacity="1.000000" stroke="none" 
	d="
M811.273926,699.360779 
	C816.867493,702.844666 818.049927,707.744690 816.573608,713.347473 
	C815.253662,718.356934 811.474976,721.109863 806.532898,721.617371 
	C800.974182,722.188171 796.034363,720.747009 793.015198,715.336914 
	C788.865601,707.901245 793.610718,698.658020 802.142883,698.150757 
	C805.036560,697.978699 807.990540,698.822327 811.273926,699.360779 
z"/>
<path fill="#5EA7BD" opacity="1.000000" stroke="none" 
	d="
M367.059845,719.204590 
	C361.745789,713.688538 360.857666,708.510010 364.057648,703.280945 
	C366.802338,698.795837 374.822693,696.522522 380.616058,698.587708 
	C385.511322,700.332642 388.512451,705.608582 387.903259,711.398743 
	C387.310211,717.035278 382.574707,721.080627 376.009766,721.002747 
	C373.124329,720.968506 370.250092,719.987549 367.059845,719.204590 
z"/>
<path fill="#5EA7BD" opacity="1.000000" stroke="none" 
	d="
M940.711060,705.956299 
	C943.300110,699.673645 946.701416,697.767639 954.298523,698.049805 
	C959.363037,698.237915 963.614990,701.295532 965.248230,705.924072 
	C966.815125,710.364441 965.201538,715.751099 961.364990,718.887329 
	C958.129028,721.532654 949.971802,721.942200 945.712952,719.673096 
	C941.395569,717.372803 939.624084,712.776001 940.711060,705.956299 
z"/>
<path fill="#25537B" opacity="1.000000" stroke="none" 
	d="
M558.004883,247.880615 
	C568.575256,241.613312 579.093750,235.256409 589.726013,229.095917 
	C618.516846,212.414047 647.359619,195.821854 676.173889,179.180435 
	C685.673096,173.694244 695.065735,168.013885 704.709473,162.796356 
	C706.467041,161.845444 709.683777,161.866318 711.417297,162.856323 
	C735.399475,176.552536 759.205505,190.556396 783.124023,204.364822 
	C812.643188,221.406509 842.228821,238.333160 871.780823,255.317993 
	C875.385010,257.389496 878.736389,260.175018 882.594055,261.473572 
	C890.296326,264.066284 890.870605,269.970917 890.869141,276.504395 
	C890.859314,320.170013 890.864258,363.835632 890.864014,407.501251 
	C890.863892,427.500763 890.797363,447.500641 890.901489,467.499603 
	C890.933411,473.627899 889.569336,477.789734 883.317627,481.282837 
	C847.755371,501.152954 812.556396,521.674377 777.277405,542.049561 
	C755.695312,554.514221 734.149475,567.043152 712.694214,579.723999 
	C709.220093,581.777344 706.557373,581.583313 703.172180,579.618652 
	C664.489563,557.168701 625.733948,534.844543 586.995483,512.490845 
	C567.409180,501.188721 547.785828,489.949890 528.295166,478.485352 
	C526.848206,477.634216 526.339050,475.188690 526.006042,473.152344 
	C527.078796,470.858795 527.939758,468.897736 527.941956,466.935669 
	C528.012329,403.293091 528.000000,339.650452 528.000000,276.007812 
	C528.000000,267.136139 528.014954,267.179291 536.620789,264.203979 
	C538.383667,263.594482 540.134460,262.725555 541.629028,261.621735 
	C543.491455,260.246277 545.015564,258.422882 546.804504,256.935852 
	C550.496277,253.867264 554.266785,250.893463 558.004883,247.880615 
M792.554138,375.891846 
	C791.401794,373.142395 789.382263,370.432190 789.255615,367.636261 
	C788.833923,358.325806 789.001099,348.983276 789.137695,339.655853 
	C789.185730,336.372101 788.473389,334.176453 785.226135,332.465698 
	C776.550415,327.895264 768.467651,322.041473 759.498718,318.227417 
	C749.462463,313.959412 744.440369,308.063873 746.883911,296.862305 
	C747.190857,295.455292 745.862366,292.805298 744.544617,292.070099 
	C733.831238,286.093109 722.890808,280.524689 712.134399,274.622314 
	C709.138733,272.978516 706.644409,273.015320 703.745789,274.680359 
	C696.399353,278.900391 689.247498,283.667938 681.462341,286.862885 
	C671.531921,290.938202 667.144653,297.204285 669.011841,307.919556 
	C669.241272,309.236053 667.726074,311.563599 666.390991,312.334900 
	C654.734070,319.069580 642.972473,325.626801 631.150879,332.069733 
	C627.988403,333.793365 626.738586,335.968628 626.833618,339.617249 
	C627.071960,348.773834 626.822754,357.941986 626.943298,367.103241 
	C627.005981,371.866119 625.696899,375.428467 620.846985,377.328156 
	C617.931396,378.470154 615.056458,380.040192 612.633850,381.999725 
	C611.069580,383.265045 609.462830,385.558472 609.410034,387.434326 
	C609.096375,398.587921 609.218689,409.754120 609.220703,420.916077 
	C609.221436,424.861450 610.629395,427.692627 614.453857,429.702515 
	C624.300293,434.877106 633.964111,440.406738 643.602661,445.964905 
	C646.892639,447.862061 649.882874,447.983612 652.811218,445.638000 
	C656.518921,442.668121 659.679199,443.509064 663.603577,445.798492 
	C676.948730,453.583832 690.495239,461.037811 704.165161,468.238037 
	C706.211975,469.316101 709.811890,469.276764 711.875610,468.194733 
	C725.407959,461.099670 738.832520,453.776215 752.025513,446.070587 
	C755.998657,443.749969 759.388794,443.141602 763.070435,445.653290 
	C766.596680,448.058990 769.625610,447.568604 773.172119,445.460358 
	C781.736755,440.369110 790.301575,435.180420 799.297913,430.948456 
	C805.118164,428.210510 806.861633,424.312256 806.788940,418.428406 
	C806.657654,407.811371 807.037292,397.186279 806.790527,386.574188 
	C806.749390,384.804749 804.986328,382.537506 803.376709,381.456879 
	C800.241211,379.351715 796.650940,377.923828 792.554138,375.891846 
z"/>
<path fill="#24537A" opacity="1.000000" stroke="none" 
	d="
M557.645569,247.923706 
	C554.266785,250.893463 550.496277,253.867264 546.804504,256.935852 
	C545.015564,258.422882 543.491455,260.246277 541.629028,261.621735 
	C540.134460,262.725555 538.383667,263.594482 536.620789,264.203979 
	C528.014954,267.179291 528.000000,267.136139 528.000000,276.007812 
	C528.000000,339.650452 528.012329,403.293091 527.941956,466.935669 
	C527.939758,468.897736 527.078796,470.858795 526.198486,472.874481 
	C525.785217,405.942627 525.834045,338.956543 525.701965,271.970795 
	C525.693237,267.538940 527.119385,264.931610 530.944275,262.865417 
	C539.818176,258.071808 548.516663,252.953476 557.645569,247.923706 
z"/>
<path fill="#24537A" opacity="1.000000" stroke="none" 
	d="
M730.866943,723.923340 
	C739.876160,728.408020 743.576843,736.522156 744.498169,745.124329 
	C745.530640,754.764954 745.492859,764.827820 743.905090,774.371643 
	C741.323120,789.890991 731.670166,796.961792 715.959534,797.028137 
	C705.913574,797.070557 705.908752,797.070557 705.906128,787.172791 
	C705.900818,767.220886 705.901306,747.268921 705.899475,727.317017 
	C705.899292,725.505920 705.899414,723.694885 705.899414,721.350525 
	C714.482300,720.898926 722.681824,720.015930 730.866943,723.923340 
z"/>
<path fill="#24537A" opacity="1.000000" stroke="none" 
	d="
M861.135925,778.519897 
	C861.895813,771.694702 861.685791,764.963013 863.740540,759.013489 
	C867.596191,747.849426 878.464172,744.495911 888.396545,750.934570 
	C890.643738,752.391296 892.754395,755.829651 892.888733,758.459961 
	C893.397766,768.427307 893.172302,778.439575 892.957642,788.429443 
	C892.919373,790.209106 892.005798,792.279724 890.843384,793.670044 
	C886.551208,798.803650 880.725037,799.927185 874.518433,798.591919 
	C868.442139,797.284546 864.905396,792.920410 863.057922,787.215149 
	C862.192871,784.543823 861.796875,781.720764 861.135925,778.519897 
z"/>
<path fill="#24567B" opacity="1.000000" stroke="none" 
	d="
M1094.335327,796.200073 
	C1090.404175,797.933289 1086.873657,799.985474 1083.085571,800.734619 
	C1077.507324,801.837708 1072.398315,798.555115 1071.175903,794.022400 
	C1069.539429,787.954407 1072.160767,781.711304 1078.290161,779.958435 
	C1084.036621,778.315063 1090.204468,778.145569 1097.130005,777.198486 
	C1096.198120,784.356750 1099.474243,790.544556 1094.335327,796.200073 
z"/>
<path fill="#25547B" opacity="1.000000" stroke="none" 
	d="
M589.898315,774.007935 
	C588.645630,780.243103 587.840332,786.186096 586.004700,791.791748 
	C584.053040,797.751831 578.906006,799.738159 572.947083,799.926453 
	C566.598633,800.126953 561.351746,798.061035 558.586670,792.084961 
	C553.348145,780.763123 553.542847,769.190002 558.106079,757.718628 
	C560.724548,751.136292 566.161377,748.777100 572.920898,749.023865 
	C579.761108,749.273560 584.830322,752.510254 586.965210,758.996948 
	C588.502808,763.668823 588.955627,768.697693 589.898315,774.007935 
z"/>
<path fill="#5EA7BD" opacity="1.000000" stroke="none" 
	d="
M792.901611,376.053650 
	C796.650940,377.923828 800.241211,379.351715 803.376709,381.456879 
	C804.986328,382.537506 806.749390,384.804749 806.790527,386.574188 
	C807.037292,397.186279 806.657654,407.811371 806.788940,418.428406 
	C806.861633,424.312256 805.118164,428.210510 799.297913,430.948456 
	C790.301575,435.180420 781.736755,440.369110 773.172119,445.460358 
	C769.625610,447.568604 766.596680,448.058990 763.070435,445.653290 
	C759.388794,443.141602 755.998657,443.749969 752.025513,446.070587 
	C738.832520,453.776215 725.407959,461.099670 711.875610,468.194733 
	C709.811890,469.276764 706.211975,469.316101 704.165161,468.238037 
	C690.495239,461.037811 676.948730,453.583832 663.603577,445.798492 
	C659.679199,443.509064 656.518921,442.668121 652.811218,445.638000 
	C649.882874,447.983612 646.892639,447.862061 643.602661,445.964905 
	C633.964111,440.406738 624.300293,434.877106 614.453857,429.702515 
	C610.629395,427.692627 609.221436,424.861450 609.220703,420.916077 
	C609.218689,409.754120 609.096375,398.587921 609.410034,387.434326 
	C609.462830,385.558472 611.069580,383.265045 612.633850,381.999725 
	C615.056458,380.040192 617.931396,378.470154 620.846985,377.328156 
	C625.696899,375.428467 627.005981,371.866119 626.943298,367.103241 
	C626.822754,357.941986 627.071960,348.773834 626.833618,339.617249 
	C626.738586,335.968628 627.988403,333.793365 631.150879,332.069733 
	C642.972473,325.626801 654.734070,319.069580 666.390991,312.334900 
	C667.726074,311.563599 669.241272,309.236053 669.011841,307.919556 
	C667.144653,297.204285 671.531921,290.938202 681.462341,286.862885 
	C689.247498,283.667938 696.399353,278.900391 703.745789,274.680359 
	C706.644409,273.015320 709.138733,272.978516 712.134399,274.622314 
	C722.890808,280.524689 733.831238,286.093109 744.544617,292.070099 
	C745.862366,292.805298 747.190857,295.455292 746.883911,296.862305 
	C744.440369,308.063873 749.462463,313.959412 759.498718,318.227417 
	C768.467651,322.041473 776.550415,327.895264 785.226135,332.465698 
	C788.473389,334.176453 789.185730,336.372101 789.137695,339.655853 
	C789.001099,348.983276 788.833923,358.325806 789.255615,367.636261 
	C789.382263,370.432190 791.401794,373.142395 792.901611,376.053650 
M648.331299,332.796753 
	C647.888977,333.029114 647.468506,333.326019 647.001099,333.484283 
	C637.929810,336.555908 634.148376,342.507385 635.691650,352.261078 
	C636.494934,357.337921 635.833191,362.646606 635.833191,368.801666 
	C638.430420,367.443481 639.945496,366.840271 641.250610,365.934570 
	C645.823059,362.761566 649.904114,362.758362 654.933960,365.821075 
	C664.286987,371.516266 674.252869,376.197052 683.773804,381.632507 
	C685.364929,382.540894 686.886719,385.106812 686.928040,386.940857 
	C687.167725,397.595062 686.556824,408.277710 687.044189,418.913574 
	C687.338074,425.326630 684.793213,428.723175 679.217407,431.100342 
	C675.267456,432.784271 671.684753,435.329742 667.350098,437.829803 
	C680.889709,445.394287 693.322021,452.432648 705.891235,459.217438 
	C707.130310,459.886292 709.463318,459.488190 710.854309,458.758057 
	C718.954102,454.506256 726.938843,450.033752 734.932068,445.581207 
	C739.329224,443.131775 743.666809,440.575378 748.791809,437.630096 
	C742.931213,434.409088 737.754700,432.076172 733.221985,428.841156 
	C731.177429,427.381958 729.347107,424.164825 729.255432,421.677551 
	C728.844543,410.531036 729.170593,399.359406 729.057495,388.198578 
	C729.024963,384.983551 730.126831,383.028442 733.035461,381.475464 
	C743.453125,375.913269 753.654053,369.940186 764.140381,364.515656 
	C766.104309,363.499725 769.149414,363.763458 771.435120,364.388794 
	C774.169006,365.136780 776.623047,366.907654 780.103455,368.702179 
	C780.103455,358.925751 780.220825,350.161072 779.964600,341.407349 
	C779.929993,340.226410 778.216980,338.762421 776.939758,338.005768 
	C770.362427,334.109375 763.704834,330.344543 757.009949,326.652252 
	C753.935669,324.956726 750.711853,323.532379 746.827515,321.627960 
	C746.827515,325.644592 746.595398,328.644470 746.884705,331.593201 
	C747.269470,335.514130 745.390625,337.982910 742.271790,339.691528 
	C731.774902,345.442108 721.263428,351.169250 710.654175,356.707397 
	C709.294617,357.417053 706.984741,357.612732 705.692566,356.938995 
	C694.937134,351.330933 684.294922,345.503326 673.670349,339.648010 
	C670.553894,337.930481 668.741577,335.403961 669.117310,331.501465 
	C669.409363,328.469208 669.175720,325.386322 669.175720,321.293396 
	C661.696838,325.423920 655.339844,328.934875 648.331299,332.796753 
M652.150269,422.492096 
	C652.150269,426.554352 652.150269,430.616608 652.150269,436.121704 
	C661.211609,430.967926 669.049438,426.527863 676.853394,422.029175 
	C677.344177,421.746277 677.871399,421.007172 677.875305,420.476624 
	C677.938538,411.790985 677.920227,403.104767 677.920227,393.495117 
	C672.858093,396.213715 669.005371,398.956604 664.717590,400.451324 
	C654.424011,404.039551 649.949463,410.668365 652.150269,422.492096 
M712.065002,321.929138 
	C712.065002,329.595825 712.065002,337.262512 712.065002,346.135406 
	C721.050903,341.193542 728.720459,337.016235 736.327271,332.727631 
	C737.065430,332.311462 737.866516,331.212799 737.876648,330.421265 
	C737.987061,321.756622 737.945801,313.090027 737.945801,303.761139 
	C729.737854,308.157532 722.377075,311.906677 715.257568,316.068665 
	C713.742798,316.954193 713.106995,319.343231 712.065002,321.929138 
M697.036560,342.481781 
	C699.134216,343.575867 701.231873,344.669952 703.926758,346.075562 
	C703.926758,336.863464 704.012085,328.579681 703.836426,320.301392 
	C703.809570,319.034241 702.900024,317.220123 701.852173,316.630829 
	C694.248535,312.354889 686.504578,308.328247 678.046936,303.818512 
	C678.046936,313.115723 677.925659,321.678650 678.187134,330.229828 
	C678.223328,331.413605 679.955078,332.870453 681.239014,333.633667 
	C686.214355,336.591187 691.326050,339.319275 697.036560,342.481781 
M744.410645,397.062592 
	C742.586182,396.059479 740.761719,395.056366 738.007385,393.541992 
	C738.007385,399.582886 738.586731,404.744720 737.879395,409.723755 
	C736.639160,418.453705 739.434387,424.125244 747.847839,427.418640 
	C753.106323,429.477081 757.948853,432.598145 763.822693,435.686523 
	C763.822693,426.336700 763.966187,418.216553 763.688660,410.110809 
	C763.639465,408.674591 762.139893,406.788727 760.789612,405.985077 
	C755.663147,402.934174 750.322998,400.242340 744.410645,397.062592 
M641.443237,434.270020 
	C644.377197,435.668640 643.969788,433.431885 643.978210,431.856812 
	C644.016296,424.717773 644.073669,417.576752 643.922485,410.440704 
	C643.895142,409.150787 643.286072,407.251190 642.330750,406.701355 
	C634.655762,402.284058 626.833191,398.123077 618.090393,393.357483 
	C618.090393,402.920135 617.968994,411.320038 618.222351,419.708618 
	C618.260010,420.956848 619.819336,422.580017 621.088684,423.299377 
	C627.570557,426.972565 634.188232,430.406067 641.443237,434.270020 
M775.930298,433.587860 
	C782.178894,430.128510 788.471619,426.744904 794.640564,423.148865 
	C795.949402,422.385956 797.690186,420.876312 797.729248,419.662323 
	C797.999390,411.272217 797.871460,402.869293 797.871460,393.373596 
	C789.052368,398.182556 781.208801,402.416534 773.433777,406.772705 
	C772.735413,407.164001 772.088318,408.340820 772.078796,409.160553 
	C771.980408,417.605072 772.018433,426.051208 772.018433,435.006897 
	C773.469116,434.527832 774.356873,434.234680 775.930298,433.587860 
M728.026672,293.519379 
	C725.263855,291.983582 722.124634,290.875519 719.805603,288.835266 
	C711.356689,281.401917 703.471069,283.509003 695.326416,289.337433 
	C691.681824,291.945557 687.567566,293.897339 682.764954,296.666870 
	C691.338318,301.227417 698.780457,305.220367 706.271057,309.120331 
	C707.059265,309.530670 708.346191,309.805420 709.041443,309.446014 
	C716.812805,305.428894 724.513306,301.274689 733.069824,296.711060 
	C731.045410,295.407196 729.859741,294.643585 728.026672,293.519379 
M785.715942,390.189636 
	C787.810486,389.014771 789.905029,387.839905 792.886475,386.167603 
	C787.529602,383.136871 783.062500,380.718567 778.702271,378.120880 
	C768.283875,371.913910 768.289490,371.853210 757.668579,377.732239 
	C752.988098,380.323029 748.381104,383.046600 742.836365,386.228973 
	C751.359131,390.920532 758.711487,395.022400 766.139648,398.982178 
	C766.991455,399.436249 768.470886,399.493591 769.311707,399.060303 
	C774.619873,396.324860 779.829834,393.398987 785.715942,390.189636 
M645.247620,373.854736 
	C638.135010,377.818481 631.022400,381.782227 623.078552,386.209198 
	C631.579285,390.922729 638.936768,395.040527 646.349792,399.055756 
	C647.118042,399.471954 648.426514,399.677246 649.129517,399.306885 
	C656.845093,395.242157 664.490234,391.043610 673.365906,386.223450 
	C664.315918,381.198883 656.441101,376.777069 648.480469,372.515533 
	C647.932617,372.222198 646.744202,373.125458 645.247620,373.854736 
z"/>
<path fill="#25547B" opacity="1.000000" stroke="none" 
	d="
M648.657043,332.621277 
	C655.339844,328.934875 661.696838,325.423920 669.175720,321.293396 
	C669.175720,325.386322 669.409363,328.469208 669.117310,331.501465 
	C668.741577,335.403961 670.553894,337.930481 673.670349,339.648010 
	C684.294922,345.503326 694.937134,351.330933 705.692566,356.938995 
	C706.984741,357.612732 709.294617,357.417053 710.654175,356.707397 
	C721.263428,351.169250 731.774902,345.442108 742.271790,339.691528 
	C745.390625,337.982910 747.269470,335.514130 746.884705,331.593201 
	C746.595398,328.644470 746.827515,325.644592 746.827515,321.627960 
	C750.711853,323.532379 753.935669,324.956726 757.009949,326.652252 
	C763.704834,330.344543 770.362427,334.109375 776.939758,338.005768 
	C778.216980,338.762421 779.929993,340.226410 779.964600,341.407349 
	C780.220825,350.161072 780.103455,358.925751 780.103455,368.702179 
	C776.623047,366.907654 774.169006,365.136780 771.435120,364.388794 
	C769.149414,363.763458 766.104309,363.499725 764.140381,364.515656 
	C753.654053,369.940186 743.453125,375.913269 733.035461,381.475464 
	C730.126831,383.028442 729.024963,384.983551 729.057495,388.198578 
	C729.170593,399.359406 728.844543,410.531036 729.255432,421.677551 
	C729.347107,424.164825 731.177429,427.381958 733.221985,428.841156 
	C737.754700,432.076172 742.931213,434.409088 748.791809,437.630096 
	C743.666809,440.575378 739.329224,443.131775 734.932068,445.581207 
	C726.938843,450.033752 718.954102,454.506256 710.854309,458.758057 
	C709.463318,459.488190 707.130310,459.886292 705.891235,459.217438 
	C693.322021,452.432648 680.889709,445.394287 667.350098,437.829803 
	C671.684753,435.329742 675.267456,432.784271 679.217407,431.100342 
	C684.793213,428.723175 687.338074,425.326630 687.044189,418.913574 
	C686.556824,408.277710 687.167725,397.595062 686.928040,386.940857 
	C686.886719,385.106812 685.364929,382.540894 683.773804,381.632507 
	C674.252869,376.197052 664.286987,371.516266 654.933960,365.821075 
	C649.904114,362.758362 645.823059,362.761566 641.250610,365.934570 
	C639.945496,366.840271 638.430420,367.443481 635.833191,368.801666 
	C635.833191,362.646606 636.494934,357.337921 635.691650,352.261078 
	C634.148376,342.507385 637.929810,336.555908 647.001099,333.484283 
	C647.468506,333.326019 647.888977,333.029114 648.657043,332.621277 
z"/>
<path fill="#24567B" opacity="1.000000" stroke="none" 
	d="
M652.150208,421.997559 
	C649.949463,410.668365 654.424011,404.039551 664.717590,400.451324 
	C669.005371,398.956604 672.858093,396.213715 677.920227,393.495117 
	C677.920227,403.104767 677.938538,411.790985 677.875305,420.476624 
	C677.871399,421.007172 677.344177,421.746277 676.853394,422.029175 
	C669.049438,426.527863 661.211609,430.967926 652.150269,436.121704 
	C652.150269,430.616608 652.150269,426.554352 652.150208,421.997559 
z"/>
<path fill="#24567B" opacity="1.000000" stroke="none" 
	d="
M712.065674,321.484375 
	C713.106995,319.343231 713.742798,316.954193 715.257568,316.068665 
	C722.377075,311.906677 729.737854,308.157532 737.945801,303.761139 
	C737.945801,313.090027 737.987061,321.756622 737.876648,330.421265 
	C737.866516,331.212799 737.065430,332.311462 736.327271,332.727631 
	C728.720459,337.016235 721.050903,341.193542 712.065002,346.135406 
	C712.065002,337.262512 712.065002,329.595825 712.065674,321.484375 
z"/>
<path fill="#24567B" opacity="1.000000" stroke="none" 
	d="
M696.711792,342.307312 
	C691.326050,339.319275 686.214355,336.591187 681.239014,333.633667 
	C679.955078,332.870453 678.223328,331.413605 678.187134,330.229828 
	C677.925659,321.678650 678.046936,313.115723 678.046936,303.818512 
	C686.504578,308.328247 694.248535,312.354889 701.852173,316.630829 
	C702.900024,317.220123 703.809570,319.034241 703.836426,320.301392 
	C704.012085,328.579681 703.926758,336.863464 703.926758,346.075562 
	C701.231873,344.669952 699.134216,343.575867 696.711792,342.307312 
z"/>
<path fill="#24567B" opacity="1.000000" stroke="none" 
	d="
M744.736694,397.239410 
	C750.322998,400.242340 755.663147,402.934174 760.789612,405.985077 
	C762.139893,406.788727 763.639465,408.674591 763.688660,410.110809 
	C763.966187,418.216553 763.822693,426.336700 763.822693,435.686523 
	C757.948853,432.598145 753.106323,429.477081 747.847839,427.418640 
	C739.434387,424.125244 736.639160,418.453705 737.879395,409.723755 
	C738.586731,404.744720 738.007385,399.582886 738.007385,393.541992 
	C740.761719,395.056366 742.586182,396.059479 744.736694,397.239410 
z"/>
<path fill="#24567B" opacity="1.000000" stroke="none" 
	d="
M641.100830,434.096710 
	C634.188232,430.406067 627.570557,426.972565 621.088684,423.299377 
	C619.819336,422.580017 618.260010,420.956848 618.222351,419.708618 
	C617.968994,411.320038 618.090393,402.920135 618.090393,393.357483 
	C626.833191,398.123077 634.655762,402.284058 642.330750,406.701355 
	C643.286072,407.251190 643.895142,409.150787 643.922485,410.440704 
	C644.073669,417.576752 644.016296,424.717773 643.978210,431.856812 
	C643.969788,433.431885 644.377197,435.668640 641.100830,434.096710 
z"/>
<path fill="#24567B" opacity="1.000000" stroke="none" 
	d="
M775.587463,433.764709 
	C774.356873,434.234680 773.469116,434.527832 772.018433,435.006897 
	C772.018433,426.051208 771.980408,417.605072 772.078796,409.160553 
	C772.088318,408.340820 772.735413,407.164001 773.433777,406.772705 
	C781.208801,402.416534 789.052368,398.182556 797.871460,393.373596 
	C797.871460,402.869293 797.999390,411.272217 797.729248,419.662323 
	C797.690186,420.876312 795.949402,422.385956 794.640564,423.148865 
	C788.471619,426.744904 782.178894,430.128510 775.587463,433.764709 
z"/>
<path fill="#24567B" opacity="1.000000" stroke="none" 
	d="
M728.350403,293.699677 
	C729.859741,294.643585 731.045410,295.407196 733.069824,296.711060 
	C724.513306,301.274689 716.812805,305.428894 709.041443,309.446014 
	C708.346191,309.805420 707.059265,309.530670 706.271057,309.120331 
	C698.780457,305.220367 691.338318,301.227417 682.764954,296.666870 
	C687.567566,293.897339 691.681824,291.945557 695.326416,289.337433 
	C703.471069,283.509003 711.356689,281.401917 719.805603,288.835266 
	C722.124634,290.875519 725.263855,291.983582 728.350403,293.699677 
z"/>
<path fill="#24567B" opacity="1.000000" stroke="none" 
	d="
M785.394104,390.362793 
	C779.829834,393.398987 774.619873,396.324860 769.311707,399.060303 
	C768.470886,399.493591 766.991455,399.436249 766.139648,398.982178 
	C758.711487,395.022400 751.359131,390.920532 742.836365,386.228973 
	C748.381104,383.046600 752.988098,380.323029 757.668579,377.732239 
	C768.289490,371.853210 768.283875,371.913910 778.702271,378.120880 
	C783.062500,380.718567 787.529602,383.136871 792.886475,386.167603 
	C789.905029,387.839905 787.810486,389.014771 785.394104,390.362793 
z"/>
<path fill="#24567B" opacity="1.000000" stroke="none" 
	d="
M645.550659,373.663513 
	C646.744202,373.125458 647.932617,372.222198 648.480469,372.515533 
	C656.441101,376.777069 664.315918,381.198883 673.365906,386.223450 
	C664.490234,391.043610 656.845093,395.242157 649.129517,399.306885 
	C648.426514,399.677246 647.118042,399.471954 646.349792,399.055756 
	C638.936768,395.040527 631.579285,390.922729 623.078552,386.209198 
	C631.022400,381.782227 638.135010,377.818481 645.550659,373.663513 
z"/>
</svg>