<svg version="1.1" id="Layer_1" xmlns="http://www.w3.org/2000/svg" xmlns:xlink="http://www.w3.org/1999/xlink" x="0px" y="0px"
	 width="100%" viewBox="0 0 225 225" enable-background="new 0 0 225 225" xml:space="preserve">
<path fill="#FCFDFD" opacity="1.000000" stroke="none" 
	d="
M125.000000,226.000000 
	C83.333336,226.000000 42.166672,226.000000 1.000005,226.000000 
	C1.000004,151.000000 1.000004,76.000015 1.000002,1.000016 
	C75.999992,1.000010 150.999985,1.000010 225.999969,1.000005 
	C225.999985,75.999985 225.999985,150.999969 226.000000,225.999969 
	C192.500000,226.000000 159.000000,226.000000 125.000000,226.000000 
M179.840439,149.067383 
	C181.022919,148.648163 182.205414,148.228943 183.387894,147.809723 
	C183.129913,147.332520 182.871933,146.855301 182.613953,146.378098 
	C181.337936,147.188080 180.061920,147.998062 178.506317,149.032593 
	C178.713654,149.070801 178.920990,149.108994 179.840439,149.067383 
M35.056705,153.067856 
	C37.927849,153.295868 41.441921,151.670486 42.780720,156.369141 
	C44.284801,151.577911 42.547218,149.419373 38.451832,150.224686 
	C37.345020,150.442322 36.246387,150.701553 35.097099,150.307129 
	C36.039307,149.337753 36.981514,148.368378 38.188568,147.126511 
	C36.502041,146.125015 34.929428,145.191162 32.763714,143.905121 
	C35.268757,142.709702 37.163277,141.805618 39.057800,140.901535 
	C38.868916,140.313034 38.680031,139.724533 38.491146,139.136032 
	C36.707390,139.586334 34.535557,139.541656 33.212196,140.579193 
	C29.141932,143.770370 33.577446,147.532654 32.932823,151.490204 
	C32.932823,151.490204 32.926685,151.941345 32.651508,152.592728 
	C32.805412,154.318176 32.959320,156.043640 33.113224,157.769089 
	C33.479317,157.670761 33.845406,157.572433 34.211498,157.474106 
	C34.211498,156.036591 34.211498,154.599075 35.056705,153.067856 
M110.208191,173.132782 
	C108.178337,176.316376 109.964729,177.682083 112.668404,179.106003 
	C114.181816,179.903076 115.188446,181.662399 116.830673,183.425323 
	C117.014679,183.020844 118.166191,181.676025 117.986237,180.542557 
	C117.815445,179.466675 116.338219,178.497833 115.278160,177.687775 
	C113.806442,176.563095 110.011276,177.543045 112.314682,173.202499 
	C114.124046,173.327072 115.933411,173.451645 118.815918,173.650116 
	C115.577583,171.142136 113.282043,170.794937 110.208191,173.132782 
M215.719620,185.127533 
	C216.328659,184.755753 216.937714,184.383957 217.559570,184.052673 
	C217.559570,184.052673 217.545914,184.093765 218.396240,184.035767 
	C219.400040,184.351273 220.403839,184.666779 221.885361,185.132446 
	C221.653549,178.257416 222.289673,171.820908 221.484589,165.488831 
	C220.782730,165.484222 220.080887,165.479614 219.379028,165.474991 
	C219.199219,167.589935 219.019409,169.704865 218.872971,171.427277 
	C216.983597,171.695053 215.504959,171.904602 213.285339,171.951828 
	C209.246719,174.052505 209.272461,177.820923 210.298828,181.237701 
	C210.769745,182.805420 213.362274,183.735825 215.719620,185.127533 
M195.222137,140.876663 
	C194.585083,140.790161 193.654434,140.391663 193.359726,140.668976 
	C191.727386,142.205002 192.423965,151.027328 194.949463,153.733078 
	C194.949463,151.098557 194.691315,149.183212 195.019897,147.374435 
	C195.369278,145.451157 196.274658,143.628860 197.821747,141.695633 
	C201.052811,141.418442 201.094772,143.639786 201.174850,145.905121 
	C201.261230,148.349075 201.439255,150.789780 201.577301,153.231903 
	C202.340942,153.203278 203.104568,153.174637 203.868210,153.146011 
	C203.868210,150.441620 204.014908,147.727554 203.837006,145.034912 
	C203.490021,139.782944 200.933395,138.514694 195.222137,140.876663 
M112.795174,146.867859 
	C112.820885,145.217545 113.427017,142.472763 112.764000,142.121155 
	C110.736847,141.046097 109.276070,137.016052 105.285316,140.078323 
	C101.400970,143.228561 100.504005,148.035751 103.198692,151.261429 
	C105.602356,154.138748 109.576965,154.039261 113.210739,150.633957 
	C109.350998,150.925644 104.705536,153.242233 104.113510,146.625458 
	C107.002953,146.625458 109.617233,146.625458 112.795174,146.867859 
M18.695761,151.891312 
	C22.883062,148.870941 23.828930,144.843369 22.264496,140.106369 
	C20.662748,135.256363 16.973394,134.283234 12.430348,134.927750 
	C11.294884,135.088837 10.135538,135.081604 8.096428,135.027039 
	C7.403372,135.593018 6.125226,136.142227 6.108459,136.727570 
	C5.953824,142.126404 6.017260,147.531494 6.017260,152.934753 
	C6.430964,153.171921 6.844669,153.409073 7.258374,153.646240 
	C8.016184,152.762802 8.773993,151.879364 9.497375,150.978882 
	C9.497375,150.978882 9.469849,150.952087 8.882191,151.859497 
	C11.919191,151.890778 14.956192,151.922058 18.695761,151.891312 
M18.825508,177.272583 
	C17.233824,174.133743 15.642137,170.994888 14.006449,167.173355 
	C13.981125,167.009933 13.987345,166.831940 13.920695,166.687607 
	C13.865355,166.567749 13.665377,166.384384 13.629747,166.404739 
	C12.721050,166.923630 11.345006,167.256378 11.004925,168.037262 
	C8.598628,173.562515 6.405296,179.180511 4.144052,184.768936 
	C4.487945,185.208130 4.831839,185.647324 5.175732,186.086502 
	C7.539100,179.547806 12.241529,179.148056 17.722731,180.893539 
	C18.370491,182.376907 19.018253,183.860275 19.666014,185.343643 
	C20.185713,185.150528 20.705414,184.957397 21.225113,184.764267 
	C20.584885,183.134399 19.944654,181.504532 19.227322,179.225967 
	C19.112183,178.815521 18.997046,178.405090 18.825508,177.272583 
M214.755142,151.852631 
	C215.758316,152.148422 216.761475,152.444214 217.474548,152.654465 
	C217.474548,146.567932 217.474548,140.770569 217.474548,134.973190 
	C217.090515,134.959610 216.706482,134.946030 216.322449,134.932449 
	C216.126556,136.647003 215.930664,138.361572 215.707672,140.313278 
	C214.726913,140.022858 213.839890,139.760193 212.591217,139.195526 
	C212.075745,139.385330 211.560272,139.575119 210.341385,139.949677 
	C204.919464,144.215424 205.252197,150.477737 211.563049,153.799500 
	C212.381088,153.183044 213.199127,152.566574 214.755142,151.852631 
M219.978653,102.377975 
	C226.455093,91.168045 225.093628,78.766266 216.459473,70.320930 
	C207.581436,61.637089 193.912384,59.941235 183.865173,66.277107 
	C173.557449,72.777275 168.937943,85.107994 172.832397,96.718437 
	C175.999252,106.159676 182.832382,112.096252 192.500320,113.878159 
	C203.560150,115.916611 212.833389,112.302170 219.978653,102.377975 
M14.006087,108.069267 
	C14.359844,102.133652 14.916595,96.201653 15.022276,90.261627 
	C15.204724,80.006897 21.220345,72.988823 30.220350,72.928375 
	C39.283150,72.867508 45.635086,79.818954 45.773438,90.018158 
	C45.838890,94.843384 45.636978,99.677650 45.857994,104.493973 
	C46.127964,110.376999 50.566231,114.131271 56.686867,113.632767 
	C56.686867,105.869652 56.717426,98.068726 56.665714,90.268349 
	C56.652531,88.279404 56.485977,86.276947 56.206635,84.306679 
	C54.538807,72.543144 44.679752,63.658730 32.318916,62.716396 
	C20.096146,61.784592 7.627811,69.082268 5.560310,80.497025 
	C3.584729,91.404282 4.087718,102.760468 3.496007,114.018578 
	C9.415636,113.717896 10.119499,113.309753 14.006087,108.069267 
M88.962280,84.440208 
	C88.070618,108.218384 104.676704,117.779465 130.230927,113.654892 
	C129.281204,106.770050 125.940521,103.526543 118.287178,104.154526 
	C107.079239,105.074173 99.039444,97.044540 99.819450,85.405899 
	C100.363144,77.293381 100.028542,69.113373 99.894005,60.966690 
	C99.780235,54.077717 95.814972,50.162708 88.962273,50.096550 
	C88.962273,61.217144 88.962273,72.337120 88.962280,84.440208 
M132.961182,89.236931 
	C133.802048,101.555794 141.972519,112.011513 153.375320,113.702904 
	C160.158356,114.709038 167.212540,113.887215 174.536972,113.887215 
	C174.156921,112.349098 174.062134,110.985519 173.498795,109.855537 
	C171.084427,105.012688 166.786987,103.984825 161.782242,103.969017 
	C149.319473,103.929680 144.007675,98.434921 144.001648,85.917511 
	C143.997620,77.588631 144.122421,69.257362 143.960861,60.931602 
	C143.829483,54.161850 139.243286,49.808357 132.942047,50.391846 
	C132.942047,63.006016 132.942047,75.650169 132.961182,89.236931 
M66.124260,77.505058 
	C66.125656,85.986115 65.998558,94.469749 66.168335,102.947433 
	C66.308937,109.968597 70.517944,114.076485 77.044991,113.694992 
	C77.044991,99.767181 77.216179,85.816238 76.958473,71.873222 
	C76.859108,66.497154 72.094337,62.928257 66.124313,63.106018 
	C66.124313,67.562233 66.124313,72.035400 66.124260,77.505058 
M150.576187,76.000183 
	C150.753311,81.427147 152.793488,83.142982 158.396530,82.577286 
	C164.586411,81.952347 168.248886,77.824020 167.402664,72.145287 
	C164.304016,72.145287 161.165085,72.144867 158.026154,72.145622 
	C157.363083,72.145790 156.580048,71.921272 156.058746,72.194374 
	C154.272827,73.130043 152.578735,74.241005 150.576187,76.000183 
M112.654808,82.619072 
	C120.737625,81.890007 123.891907,79.018829 123.730591,72.152603 
	C120.130180,72.152603 116.508232,72.186966 112.887245,72.142616 
	C109.492065,72.101036 106.784966,73.379807 106.440506,76.911499 
	C106.095383,80.449997 108.352859,82.330322 112.654808,82.619072 
M76.104713,52.060467 
	C76.111977,43.241020 73.125450,39.425106 65.861969,39.433044 
	C65.861969,43.042393 65.971283,46.660271 65.829277,50.268253 
	C65.703247,53.470173 66.766273,56.399139 69.957397,56.490036 
	C71.941261,56.546551 73.994347,54.173115 76.104713,52.060467 
M153.713974,172.946671 
	C153.713974,176.547363 153.713974,180.148071 153.713974,183.748764 
	C154.439011,182.208755 154.436935,180.712891 154.439972,179.217026 
	C154.441330,178.550903 154.172836,177.610672 154.509216,177.266953 
	C155.846725,175.900177 157.374451,174.719528 158.831711,173.469925 
	C159.679230,174.681778 160.981506,175.792664 161.277771,177.126907 
	C161.859360,179.746170 161.881119,182.489716 162.134537,185.181839 
	C162.788620,185.084976 163.442719,184.988113 164.096802,184.891266 
	C164.096802,181.928833 163.901794,178.946060 164.207779,176.015564 
	C164.308228,175.053604 165.707825,174.227280 166.513336,173.338943 
	C167.393906,174.178329 168.788559,174.887741 169.040939,175.885956 
	C169.477356,177.612076 169.083557,179.529922 169.270706,181.343338 
	C169.406799,182.662109 169.917664,183.942230 170.261429,185.239578 
	C170.831055,185.152817 171.400665,185.066040 171.970291,184.979279 
	C171.970291,182.259552 171.888428,179.536728 171.990555,176.820831 
	C172.124634,173.255310 169.702667,172.039230 166.921371,171.557892 
	C165.978455,171.394684 164.794479,173.114594 163.723038,173.111633 
	C160.524490,173.102783 157.327103,172.666580 153.713974,172.946671 
M79.022751,171.332474 
	C78.434761,171.825302 77.287346,172.405823 77.348640,172.796875 
	C77.780190,175.550110 78.674255,178.238266 79.010780,180.997208 
	C79.504013,185.040863 80.298714,185.628159 85.154503,184.237915 
	C79.512688,181.963150 82.166496,177.753326 81.913452,174.038513 
	C84.203819,174.038513 86.103531,174.038513 88.181511,174.038513 
	C88.402946,177.923737 88.609093,181.540756 88.815247,185.157761 
	C89.401634,185.091980 89.988029,185.026199 90.574417,184.960419 
	C90.574417,180.677658 90.574417,176.394897 90.574417,171.790054 
	C87.621140,171.790054 84.845657,171.790054 82.108810,171.790054 
	C81.777435,170.087692 81.506729,168.697006 81.236015,167.306305 
	C80.945381,167.273300 80.654747,167.240311 80.364113,167.207306 
	C80.000839,168.335037 79.637558,169.462769 79.022751,171.332474 
M91.241776,134.450531 
	C86.295486,138.352417 86.663315,141.991837 92.232635,144.230164 
	C92.848152,144.477539 93.691879,144.524841 94.051720,144.970306 
	C95.053596,146.210587 95.856438,147.611618 96.737877,148.949173 
	C95.228897,149.654373 93.763481,150.777649 92.198013,150.940781 
	C90.786995,151.087784 89.266388,150.183136 86.528557,149.363403 
	C89.110016,153.531464 92.166809,154.052460 94.797958,152.983780 
	C96.668167,152.224167 98.904724,149.725815 98.971741,147.928665 
	C99.035561,146.217285 96.575691,144.337830 95.060150,142.683655 
	C94.563042,142.141098 93.341492,142.276215 92.816360,141.742294 
	C91.878242,140.788498 91.217583,139.561798 90.440918,138.449188 
	C91.771980,137.697403 93.034035,136.567642 94.454987,136.308228 
	C95.688217,136.083084 97.101349,136.843307 98.434967,137.168030 
	C98.570641,136.597839 98.706322,136.027634 98.841995,135.457443 
	C96.559502,135.023834 94.277000,134.590210 91.241776,134.450531 
M168.253067,146.484055 
	C171.025375,142.224976 166.747803,141.310577 164.689102,140.459869 
	C163.243454,139.862457 159.374710,141.244965 159.170914,142.261261 
	C158.581497,145.200714 158.871201,148.528564 159.733734,151.431183 
	C160.032822,152.437714 163.023041,152.644577 165.888916,153.575638 
	C163.047867,150.825119 161.449127,149.277344 159.850403,147.729568 
	C160.113449,147.329498 160.376511,146.929413 160.639557,146.529343 
	C162.937332,146.529343 165.235123,146.529343 168.253067,146.484055 
M198.784027,172.625275 
	C197.397720,173.862274 194.878815,175.084732 194.862701,176.339310 
	C194.829971,178.891205 195.412064,182.344589 197.121689,183.768539 
	C198.761749,185.134537 202.148666,184.403198 204.767914,184.593552 
	C204.815491,184.113647 204.863068,183.633759 204.910645,183.153854 
	C201.884567,182.529694 197.059723,184.670547 197.253372,178.363495 
	C199.931320,178.229034 202.312851,178.109467 204.270218,178.011200 
	C203.548920,176.367798 203.099365,174.727448 202.161606,173.443710 
	C201.620270,172.702667 200.290833,172.537323 198.784027,172.625275 
M67.923065,146.449158 
	C64.606026,150.008514 64.606026,150.008514 63.878357,148.443726 
	C63.931992,149.017609 64.105835,150.877762 64.293785,152.888748 
	C66.585823,152.785583 68.872856,152.682648 71.267273,152.574875 
	C71.267273,149.622925 71.667320,146.586380 71.105553,143.739655 
	C70.805901,142.221191 69.017593,140.202393 67.588936,139.903915 
	C65.843300,139.539230 63.770180,140.742081 61.838673,141.267075 
	C61.952702,141.686584 62.066727,142.106110 62.180752,142.525620 
	C68.194321,140.926483 68.811203,141.251282 67.923065,146.449158 
M74.095787,172.644653 
	C73.318031,172.943634 72.125099,173.025360 71.835091,173.579575 
	C70.642586,175.858505 69.724586,178.281052 68.616013,180.859177 
	C64.179626,172.466644 64.179626,172.466644 62.195648,172.254089 
	C63.488903,178.008224 69.435913,182.796936 65.039307,189.707123 
	C65.696236,189.856918 66.353157,190.006729 67.010086,190.156525 
	C69.373329,184.583771 71.736580,179.011017 74.095787,172.644653 
M186.071503,184.392990 
	C187.717529,184.673553 189.363556,184.954102 191.009598,185.234650 
	C186.712341,181.372528 186.375565,175.473083 189.409775,173.589172 
	C188.529404,171.481964 187.729858,169.568253 186.941711,167.681808 
	C185.788177,169.407211 184.651367,171.107635 184.010025,172.066910 
	C184.577499,176.217361 185.087479,179.947342 186.071503,184.392990 
M75.063652,151.089630 
	C75.386078,151.735809 75.708511,152.381989 76.030945,153.028168 
	C76.499214,152.342224 77.350708,151.668335 77.372742,150.968338 
	C77.502831,146.835342 77.475349,142.695862 77.424461,138.559479 
	C77.404793,136.961060 77.184822,135.365112 77.056114,133.768036 
	C76.391586,133.791870 75.727066,133.815704 75.062546,133.839539 
	C75.062546,139.280548 75.062546,144.721573 75.063652,151.089630 
M98.103668,176.074036 
	C99.231483,174.237106 100.359306,172.400192 100.929413,171.471634 
	C99.288284,171.486511 96.023384,172.190720 95.737274,175.981796 
	C95.538567,178.614716 96.316498,181.843674 97.866600,183.891602 
	C98.805923,185.132584 102.050156,184.628937 104.258858,184.909088 
	C104.282990,184.471237 104.307114,184.033386 104.331238,183.595535 
	C98.058418,182.644104 98.058418,182.644104 98.103668,176.074036 
M44.280872,182.009445 
	C46.362240,183.014694 48.443611,184.019943 50.524982,185.025208 
	C51.021057,184.795715 51.517132,184.566223 52.013206,184.336731 
	C50.760002,180.198792 49.811775,175.915512 47.972996,172.056595 
	C47.641228,171.360367 43.648163,172.408752 41.345451,172.651672 
	C41.406830,173.191925 41.468212,173.732162 41.529591,174.272400 
	C42.129524,174.180466 42.734203,173.988235 43.328453,174.016388 
	C44.800686,174.086060 46.268150,174.256454 47.737530,174.386398 
	C47.437248,175.818054 47.301884,177.313202 46.783195,178.660797 
	C46.386219,179.692169 45.504799,180.537079 44.280872,182.009445 
M131.617737,180.449402 
	C131.686066,181.877380 131.754410,183.305374 131.822067,184.719360 
	C135.336823,184.719360 138.455643,184.719360 141.574463,184.719360 
	C141.613358,184.360947 141.652252,184.002518 141.691147,183.644104 
	C139.275818,183.275192 136.860474,182.906265 133.562729,182.402573 
	C133.562729,177.006470 133.562729,171.492920 133.562729,165.979385 
	C132.914368,165.995255 132.266006,166.011124 131.617645,166.027008 
	C131.617645,170.504623 131.617645,174.982254 131.617737,180.449402 
M58.573715,141.867935 
	C58.803230,141.469788 59.302380,140.791702 59.222523,140.714783 
	C57.571892,139.125031 55.855419,137.603653 54.319584,136.219727 
	C53.486305,137.610428 52.378395,139.459473 51.270485,141.308517 
	C51.596298,141.262497 51.922108,141.216476 52.247921,141.170456 
	C52.668945,144.790497 53.089973,148.410538 53.510998,152.030594 
	C54.019329,151.985092 54.527657,151.939590 55.035988,151.894089 
	C55.035988,149.503586 54.759109,147.065170 55.160717,144.744156 
	C55.342983,143.690796 56.870152,142.870132 58.573715,141.867935 
M188.993225,147.525482 
	C187.977371,144.971375 187.537643,141.800690 185.721191,140.103348 
	C184.695145,139.144577 181.404724,140.609070 179.134277,140.982040 
	C179.276047,141.556747 179.417831,142.131439 179.559616,142.706131 
	C180.718002,142.362701 182.069397,141.476883 182.989136,141.804153 
	C184.336761,142.283707 186.449997,144.415344 186.390564,144.496872 
	C184.054260,147.701553 187.600052,149.453201 188.574341,151.966583 
	C188.713898,150.775894 188.853455,149.585190 188.993225,147.525482 
M116.218597,148.395584 
	C116.535538,150.029800 116.852478,151.664017 117.169418,153.298233 
	C117.652863,153.188522 118.136307,153.078812 118.619751,152.969086 
	C119.002853,149.170578 119.385948,145.372070 119.806236,141.204803 
	C118.847481,141.054947 117.576942,140.856369 116.218666,140.644073 
	C116.218666,143.209152 116.218666,145.348419 116.218597,148.395584 
M148.980179,150.403458 
	C146.921509,144.646149 147.500076,143.075485 152.366638,140.197571 
	C150.159439,140.695587 147.021637,141.222397 146.400101,142.763794 
	C145.471741,145.066238 146.254349,148.089096 146.516830,150.785248 
	C146.538651,151.009232 148.139740,151.079468 148.980179,150.403458 
M36.187630,178.665802 
	C36.035046,171.762329 33.923103,170.071365 28.775658,173.120483 
	C38.465599,173.194870 31.334129,181.868317 36.187389,186.152710 
	C36.187389,183.199448 36.187389,181.387024 36.187630,178.665802 
M127.147331,146.468018 
	C128.314819,148.816086 129.482300,151.164169 130.649780,153.512238 
	C131.264832,153.191345 131.879898,152.870453 132.494949,152.549545 
	C130.585510,148.587875 128.676086,144.626190 126.766647,140.664505 
	C126.240929,140.902878 125.715210,141.141235 125.189491,141.379608 
	C125.756401,142.835342 126.323311,144.291077 127.147331,146.468018 
M25.068756,177.643234 
	C25.068756,180.107910 25.068756,182.572601 25.068756,185.037277 
	C28.521158,181.059921 28.046152,173.724838 25.068762,172.200897 
	C25.068762,173.795868 25.068762,175.266327 25.068756,177.643234 
M55.942535,172.567078 
	C55.942535,176.729492 55.942535,180.891907 55.942535,185.054321 
	C56.409168,185.013382 56.875805,184.972427 57.342438,184.931488 
	C57.342438,178.902771 57.342438,172.874039 57.342438,166.845322 
	C56.875805,166.843201 56.409172,166.841080 55.942539,166.838974 
	C55.942539,168.420364 55.942539,170.001770 55.942535,172.567078 
M176.951981,174.644714 
	C176.951981,178.085876 176.951981,181.527054 176.951981,184.968216 
	C177.467178,184.956314 177.982376,184.944427 178.497574,184.932526 
	C178.497574,180.596207 178.497574,176.259888 178.497574,171.923584 
	C178.215485,171.847519 177.933411,171.771469 177.651321,171.695404 
	C177.419907,172.358231 177.188477,173.021042 176.951981,174.644714 
M145.992096,177.499817 
	C145.992096,179.995361 145.992096,182.490906 145.992096,184.986435 
	C146.473221,184.964600 146.954330,184.942764 147.435455,184.920929 
	C147.435455,180.566879 147.435455,176.212830 147.435455,171.858780 
	C146.954330,171.862122 146.473221,171.865448 145.992096,171.868774 
	C145.992096,173.425156 145.992096,174.981522 145.992096,177.499817 
M139.961777,148.462219 
	C140.118179,150.034912 140.274582,151.607605 140.431000,153.180298 
	C140.708511,153.112000 140.986038,153.043701 141.263550,152.975403 
	C141.263550,148.724655 141.263550,144.473892 141.263550,140.223145 
	C140.829620,140.231873 140.395691,140.240585 139.961761,140.249313 
	C139.961761,142.670715 139.961761,145.092133 139.961777,148.462219 
M181.743286,154.017731 
	C183.097046,153.515137 184.450790,153.012527 185.804550,152.509933 
	C185.700562,152.116348 185.596588,151.722778 185.492599,151.329193 
	C183.299164,151.329193 181.105728,151.329193 178.571030,151.329193 
	C179.467621,152.252197 180.249878,153.057510 181.743286,154.017731 
M40.468884,147.193115 
	C40.582581,145.977554 40.696274,144.762009 40.809967,143.546448 
	C40.266068,143.570541 39.722172,143.594635 39.178276,143.618729 
	C39.402718,144.759415 39.627155,145.900085 40.468884,147.193115 
M40.792027,157.221680 
	C40.703987,156.990997 40.615948,156.760315 40.527908,156.529633 
	C40.506287,156.839767 40.484661,157.149887 40.792027,157.221680 
z"/>
<path fill="#05AEEF" opacity="1.000000" stroke="none" 
	d="
M219.771988,102.679962 
	C212.833389,112.302170 203.560150,115.916611 192.500320,113.878159 
	C182.832382,112.096252 175.999252,106.159676 172.832397,96.718437 
	C168.937943,85.107994 173.557449,72.777275 183.865173,66.277107 
	C193.912384,59.941235 207.581436,61.637089 216.459473,70.320930 
	C225.093628,78.766266 226.455093,91.168045 219.771988,102.679962 
M212.935760,85.985847 
	C212.480209,84.572845 212.177719,83.086800 211.543945,81.758865 
	C207.834503,73.986565 198.735580,70.573921 191.410294,74.136536 
	C183.550156,77.959267 180.167007,87.499130 183.922806,95.249863 
	C187.182495,101.976768 194.160843,105.363640 201.275436,103.671806 
	C208.655701,101.916801 212.873596,95.846558 212.935760,85.985847 
z"/>
<path fill="#06AEEF" opacity="1.000000" stroke="none" 
	d="
M13.837341,108.433655 
	C10.119499,113.309753 9.415636,113.717896 3.496007,114.018578 
	C4.087718,102.760468 3.584729,91.404282 5.560310,80.497025 
	C7.627811,69.082268 20.096146,61.784592 32.318916,62.716396 
	C44.679752,63.658730 54.538807,72.543144 56.206635,84.306679 
	C56.485977,86.276947 56.652531,88.279404 56.665714,90.268349 
	C56.717426,98.068726 56.686867,105.869652 56.686867,113.632767 
	C50.566231,114.131271 46.127964,110.376999 45.857994,104.493973 
	C45.636978,99.677650 45.838890,94.843384 45.773438,90.018158 
	C45.635086,79.818954 39.283150,72.867508 30.220350,72.928375 
	C21.220345,72.988823 15.204724,80.006897 15.022276,90.261627 
	C14.916595,96.201653 14.359844,102.133652 13.837341,108.433655 
z"/>
<path fill="#05ADEF" opacity="1.000000" stroke="none" 
	d="
M88.962280,83.948654 
	C88.962273,72.337120 88.962273,61.217144 88.962273,50.096550 
	C95.814972,50.162708 99.780235,54.077717 99.894005,60.966690 
	C100.028542,69.113373 100.363144,77.293381 99.819450,85.405899 
	C99.039444,97.044540 107.079239,105.074173 118.287178,104.154526 
	C125.940521,103.526543 129.281204,106.770050 130.230927,113.654892 
	C104.676704,117.779465 88.070618,108.218384 88.962280,83.948654 
z"/>
<path fill="#03ADEF" opacity="1.000000" stroke="none" 
	d="
M132.951614,88.765625 
	C132.942047,75.650169 132.942047,63.006016 132.942047,50.391846 
	C139.243286,49.808357 143.829483,54.161850 143.960861,60.931602 
	C144.122421,69.257362 143.997620,77.588631 144.001648,85.917511 
	C144.007675,98.434921 149.319473,103.929680 161.782242,103.969017 
	C166.786987,103.984825 171.084427,105.012688 173.498795,109.855537 
	C174.062134,110.985519 174.156921,112.349098 174.536972,113.887215 
	C167.212540,113.887215 160.158356,114.709038 153.375320,113.702904 
	C141.972519,112.011513 133.802048,101.555794 132.951614,88.765625 
z"/>
<path fill="#07AEEF" opacity="1.000000" stroke="none" 
	d="
M66.124283,77.006805 
	C66.124313,72.035400 66.124313,67.562233 66.124313,63.106018 
	C72.094337,62.928257 76.859108,66.497154 76.958473,71.873222 
	C77.216179,85.816238 77.044991,99.767181 77.044991,113.694992 
	C70.517944,114.076485 66.308937,109.968597 66.168335,102.947433 
	C65.998558,94.469749 66.125656,85.986115 66.124283,77.006805 
z"/>
<path fill="#11B0EE" opacity="1.000000" stroke="none" 
	d="
M150.712906,75.642654 
	C152.578735,74.241005 154.272827,73.130043 156.058746,72.194374 
	C156.580048,71.921272 157.363083,72.145790 158.026154,72.145622 
	C161.165085,72.144867 164.304016,72.145287 167.402664,72.145287 
	C168.248886,77.824020 164.586411,81.952347 158.396530,82.577286 
	C152.793488,83.142982 150.753311,81.427147 150.712906,75.642654 
z"/>
<path fill="#0FAFEF" opacity="1.000000" stroke="none" 
	d="
M112.264046,82.612503 
	C108.352859,82.330322 106.095383,80.449997 106.440506,76.911499 
	C106.784966,73.379807 109.492065,72.101036 112.887245,72.142616 
	C116.508232,72.186966 120.130180,72.152603 123.730591,72.152603 
	C123.891907,79.018829 120.737625,81.890007 112.264046,82.612503 
z"/>
<path fill="#06ADEE" opacity="1.000000" stroke="none" 
	d="
M76.060539,52.475380 
	C73.994347,54.173115 71.941261,56.546551 69.957397,56.490036 
	C66.766273,56.399139 65.703247,53.470173 65.829277,50.268253 
	C65.971283,46.660271 65.861969,43.042393 65.861969,39.433044 
	C73.125450,39.425106 76.111977,43.241020 76.060539,52.475380 
z"/>
<path fill="#F8F8F8" opacity="1.000000" stroke="none" 
	d="
M9.469849,150.952087 
	C9.469849,150.952087 9.497375,150.978882 9.274087,150.581146 
	C9.079208,145.541931 9.107619,140.900467 9.544943,136.243774 
	C13.568828,136.118301 17.392622,135.974533 19.302883,139.767349 
	C21.140985,143.416916 20.490406,147.041687 17.244236,150.290619 
	C14.366240,150.607635 11.918044,150.779861 9.469849,150.952087 
z"/>
<path fill="#585859" opacity="1.000000" stroke="none" 
	d="
M153.921631,172.671967 
	C157.327103,172.666580 160.524490,173.102783 163.723038,173.111633 
	C164.794479,173.114594 165.978455,171.394684 166.921371,171.557892 
	C169.702667,172.039230 172.124634,173.255310 171.990555,176.820831 
	C171.888428,179.536728 171.970291,182.259552 171.970291,184.979279 
	C171.400665,185.066040 170.831055,185.152817 170.261429,185.239578 
	C169.917664,183.942230 169.406799,182.662109 169.270706,181.343338 
	C169.083557,179.529922 169.477356,177.612076 169.040939,175.885956 
	C168.788559,174.887741 167.393906,174.178329 166.513336,173.338943 
	C165.707825,174.227280 164.308228,175.053604 164.207779,176.015564 
	C163.901794,178.946060 164.096802,181.928833 164.096802,184.891266 
	C163.442719,184.988113 162.788620,185.084976 162.134537,185.181839 
	C161.881119,182.489716 161.859360,179.746170 161.277771,177.126907 
	C160.981506,175.792664 159.679230,174.681778 158.831726,173.469940 
	C157.374451,174.719528 155.846725,175.900177 154.509216,177.266953 
	C154.172836,177.610672 154.441330,178.550903 154.439972,179.217026 
	C154.436935,180.712891 154.439011,182.208755 153.713974,183.748764 
	C153.713974,180.148071 153.713974,176.547363 153.921631,172.671967 
z"/>
<path fill="#515152" opacity="1.000000" stroke="none" 
	d="
M79.148514,170.961487 
	C79.637558,169.462769 80.000839,168.335037 80.364113,167.207306 
	C80.654747,167.240311 80.945381,167.273300 81.236015,167.306305 
	C81.506729,168.697006 81.777435,170.087692 82.108810,171.790054 
	C84.845657,171.790054 87.621140,171.790054 90.574417,171.790054 
	C90.574417,176.394897 90.574417,180.677658 90.574417,184.960419 
	C89.988029,185.026199 89.401634,185.091980 88.815247,185.157761 
	C88.609093,181.540756 88.402946,177.923737 88.181511,174.038513 
	C86.103531,174.038513 84.203819,174.038513 81.913452,174.038513 
	C82.166496,177.753326 79.512688,181.963150 85.154503,184.237915 
	C80.298714,185.628159 79.504013,185.040863 79.010780,180.997208 
	C78.674255,178.238266 77.780190,175.550110 77.348640,172.796875 
	C77.287346,172.405823 78.434761,171.825302 79.148514,170.961487 
z"/>
<path fill="#3E3E3F" opacity="1.000000" stroke="none" 
	d="
M91.618134,134.303558 
	C94.277000,134.590210 96.559502,135.023834 98.841995,135.457443 
	C98.706322,136.027634 98.570641,136.597839 98.434967,137.168030 
	C97.101349,136.843307 95.688217,136.083084 94.454987,136.308228 
	C93.034035,136.567642 91.771980,137.697403 90.440918,138.449188 
	C91.217583,139.561798 91.878242,140.788498 92.816360,141.742294 
	C93.341492,142.276215 94.563042,142.141098 95.060150,142.683655 
	C96.575691,144.337830 99.035561,146.217285 98.971741,147.928665 
	C98.904724,149.725815 96.668167,152.224167 94.797958,152.983780 
	C92.166809,154.052460 89.110016,153.531464 86.528557,149.363403 
	C89.266388,150.183136 90.786995,151.087784 92.198013,150.940781 
	C93.763481,150.777649 95.228897,149.654373 96.737877,148.949173 
	C95.856438,147.611618 95.053596,146.210587 94.051720,144.970306 
	C93.691879,144.524841 92.848152,144.477539 92.232635,144.230164 
	C86.663315,141.991837 86.295486,138.352417 91.618134,134.303558 
z"/>
<path fill="#4B4B4C" opacity="1.000000" stroke="none" 
	d="
M167.892975,146.506699 
	C165.235123,146.529343 162.937332,146.529343 160.639557,146.529343 
	C160.376511,146.929413 160.113449,147.329498 159.850403,147.729568 
	C161.449127,149.277344 163.047867,150.825119 165.888916,153.575638 
	C163.023041,152.644577 160.032822,152.437714 159.733734,151.431183 
	C158.871201,148.528564 158.581497,145.200714 159.170914,142.261261 
	C159.374710,141.244965 163.243454,139.862457 164.689102,140.459869 
	C166.747803,141.310577 171.025375,142.224976 167.892975,146.506699 
z"/>
<path fill="#4B4B4C" opacity="1.000000" stroke="none" 
	d="
M199.050079,172.369064 
	C200.290833,172.537323 201.620270,172.702667 202.161606,173.443710 
	C203.099365,174.727448 203.548920,176.367798 204.270218,178.011200 
	C202.312851,178.109467 199.931320,178.229034 197.253372,178.363495 
	C197.059723,184.670547 201.884567,182.529694 204.910645,183.153854 
	C204.863068,183.633759 204.815491,184.113647 204.767914,184.593552 
	C202.148666,184.403198 198.761749,185.134537 197.121689,183.768539 
	C195.412064,182.344589 194.829971,178.891205 194.862701,176.339310 
	C194.878815,175.084732 197.397720,173.862274 199.050079,172.369064 
z"/>
<path fill="#424243" opacity="1.000000" stroke="none" 
	d="
M68.160034,146.123932 
	C68.811203,141.251282 68.194321,140.926483 62.180752,142.525620 
	C62.066727,142.106110 61.952702,141.686584 61.838673,141.267075 
	C63.770180,140.742081 65.843300,139.539230 67.588936,139.903915 
	C69.017593,140.202393 70.805901,142.221191 71.105553,143.739655 
	C71.667320,146.586380 71.267273,149.622925 71.267273,152.574875 
	C68.872856,152.682648 66.585823,152.785583 64.293785,152.888748 
	C64.105835,150.877762 63.931992,149.017609 63.878357,148.443726 
	C64.606026,150.008514 64.606026,150.008514 68.160034,146.123932 
z"/>
<path fill="#444445" opacity="1.000000" stroke="none" 
	d="
M74.097809,173.041458 
	C71.736580,179.011017 69.373329,184.583771 67.010086,190.156525 
	C66.353157,190.006729 65.696236,189.856918 65.039307,189.707123 
	C69.435913,182.796936 63.488903,178.008224 62.195648,172.254089 
	C64.179626,172.466644 64.179626,172.466644 68.616013,180.859177 
	C69.724586,178.281052 70.642586,175.858505 71.835091,173.579575 
	C72.125099,173.025360 73.318031,172.943634 74.097809,173.041458 
z"/>
<path fill="#F1F1F1" opacity="1.000000" stroke="none" 
	d="
M211.044800,139.764923 
	C211.560272,139.575119 212.075745,139.385330 212.760681,139.765625 
	C216.855362,143.676590 217.218292,147.554169 214.017181,151.950104 
	C213.199127,152.566574 212.381088,153.183044 211.305023,153.204590 
	C207.157822,148.328751 210.007614,144.046677 211.044800,139.764923 
z"/>
<path fill="#5B5B5B" opacity="1.000000" stroke="none" 
	d="
M214.026337,172.114166 
	C215.504959,171.904602 216.983597,171.695053 218.872971,171.427277 
	C219.019409,169.704865 219.199219,167.589935 219.379028,165.474991 
	C220.080887,165.479614 220.782730,165.484222 221.484589,165.488831 
	C222.289673,171.820908 221.653549,178.257416 221.885361,185.132446 
	C220.403839,184.666779 219.400040,184.351273 217.918610,183.619232 
	C217.850388,180.279190 218.357971,177.359680 218.477585,174.424362 
	C218.486893,174.196442 215.775940,173.857651 214.211548,173.215088 
	C214.071320,172.611237 214.048828,172.362701 214.026337,172.114166 
z"/>
<path fill="#3D3D3E" opacity="1.000000" stroke="none" 
	d="
M17.479887,180.154877 
	C12.241529,179.148056 7.539100,179.547806 5.175732,186.086502 
	C4.831839,185.647324 4.487945,185.208130 4.144052,184.768936 
	C6.405296,179.180511 8.598628,173.562515 11.004925,168.037262 
	C11.345006,167.256378 12.721050,166.923630 13.629747,166.404739 
	C13.665377,166.384384 13.865355,166.567749 13.920695,166.687607 
	C13.987345,166.831940 13.981125,167.009933 14.002899,167.915833 
	C13.958788,169.192657 13.918225,169.726990 13.516037,170.230865 
	C11.961026,172.612518 10.767641,175.024628 9.289037,178.013229 
	C12.189832,178.013229 14.117157,178.013229 16.399044,178.002228 
	C17.463039,177.992371 18.172474,177.993500 18.881908,177.994629 
	C18.997046,178.405090 19.112183,178.815521 18.809628,179.619659 
	C18.087919,180.060516 17.783903,180.107697 17.479887,180.154877 
z"/>
<path fill="#606061" opacity="1.000000" stroke="none" 
	d="
M185.834473,184.035156 
	C185.087479,179.947342 184.577499,176.217361 184.010025,172.066910 
	C184.651367,171.107635 185.788177,169.407211 186.941711,167.681808 
	C187.729858,169.568253 188.529404,171.481964 189.409775,173.589172 
	C186.375565,175.473083 186.712341,181.372528 191.009598,185.234650 
	C189.363556,184.954102 187.717529,184.673553 185.834473,184.035156 
z"/>
<path fill="#F3F3F3" opacity="1.000000" stroke="none" 
	d="
M214.329315,173.570389 
	C215.775940,173.857651 218.486893,174.196442 218.477585,174.424362 
	C218.357971,177.359680 217.850388,180.279190 217.493439,183.648224 
	C217.545914,184.093765 217.559570,184.052673 217.339355,183.652771 
	C216.549377,183.288010 215.979614,183.323151 215.082336,183.232178 
	C210.590317,180.107025 211.566635,176.878571 214.329315,173.570389 
z"/>
<path fill="#3B3B3C" opacity="1.000000" stroke="none" 
	d="
M17.674036,150.145844 
	C20.490406,147.041687 21.140985,143.416916 19.302883,139.767349 
	C17.392622,135.974533 13.568828,136.118301 9.496786,135.968414 
	C9.022202,135.522766 9.004684,135.337250 8.987169,135.151733 
	C10.135538,135.081604 11.294884,135.088837 12.430348,134.927750 
	C16.973394,134.283234 20.662748,135.256363 22.264496,140.106369 
	C23.828930,144.843369 22.883062,148.870941 18.282835,151.467255 
	C17.804619,150.744064 17.739326,150.444962 17.674036,150.145844 
z"/>
<path fill="#363637" opacity="1.000000" stroke="none" 
	d="
M214.386169,151.901367 
	C217.218292,147.554169 216.855362,143.676590 212.941498,139.916626 
	C213.839890,139.760193 214.726913,140.022858 215.707672,140.313278 
	C215.930664,138.361572 216.126556,136.647003 216.322449,134.932449 
	C216.706482,134.946030 217.090515,134.959610 217.474548,134.973190 
	C217.474548,140.770569 217.474548,146.567932 217.474548,152.654465 
	C216.761475,152.444214 215.758316,152.148422 214.386169,151.901367 
z"/>
<path fill="#3D3D3E" opacity="1.000000" stroke="none" 
	d="
M112.231506,146.625458 
	C109.617233,146.625458 107.002953,146.625458 104.113510,146.625458 
	C104.705536,153.242233 109.350998,150.925644 113.210739,150.633957 
	C109.576965,154.039261 105.602356,154.138748 103.198692,151.261429 
	C100.504005,148.035751 101.400970,143.228561 105.682106,140.393433 
	C106.070229,141.146866 106.061562,141.585175 105.718872,142.153305 
	C105.029312,143.078735 104.673790,143.874359 104.186256,144.965424 
	C106.304642,144.965424 107.942192,144.990906 109.578041,144.949432 
	C110.050507,144.937454 110.518097,144.732986 111.399918,144.770660 
	C111.951782,145.491516 112.091644,146.058487 112.231506,146.625458 
z"/>
<path fill="#39393B" opacity="1.000000" stroke="none" 
	d="
M75.063095,150.626099 
	C75.062546,144.721573 75.062546,139.280548 75.062546,133.839539 
	C75.727066,133.815704 76.391586,133.791870 77.056114,133.768036 
	C77.184822,135.365112 77.404793,136.961060 77.424461,138.559479 
	C77.475349,142.695862 77.502831,146.835342 77.372742,150.968338 
	C77.350708,151.668335 76.499214,152.342224 76.030945,153.028168 
	C75.708511,152.381989 75.386078,151.735809 75.063095,150.626099 
z"/>
<path fill="#4D4D4E" opacity="1.000000" stroke="none" 
	d="
M98.029938,176.473969 
	C98.058418,182.644104 98.058418,182.644104 104.331238,183.595535 
	C104.307114,184.033386 104.282990,184.471237 104.258858,184.909088 
	C102.050156,184.628937 98.805923,185.132584 97.866600,183.891602 
	C96.316498,181.843674 95.538567,178.614716 95.737274,175.981796 
	C96.023384,172.190720 99.288284,171.486511 100.929413,171.471634 
	C100.359306,172.400192 99.231483,174.237106 98.029938,176.473969 
z"/>
<path fill="#323232" opacity="1.000000" stroke="none" 
	d="
M44.559860,181.737183 
	C45.504799,180.537079 46.386219,179.692169 46.783195,178.660797 
	C47.301884,177.313202 47.437248,175.818054 47.737530,174.386398 
	C46.268150,174.256454 44.800686,174.086060 43.328453,174.016388 
	C42.734203,173.988235 42.129524,174.180466 41.529591,174.272400 
	C41.468212,173.732162 41.406830,173.191925 41.345451,172.651672 
	C43.648163,172.408752 47.641228,171.360367 47.972996,172.056595 
	C49.811775,175.915512 50.760002,180.198792 52.013206,184.336731 
	C51.517132,184.566223 51.021057,184.795715 50.524982,185.025208 
	C48.443611,184.019943 46.362240,183.014694 44.559860,181.737183 
z"/>
<path fill="#2B2B2C" opacity="1.000000" stroke="none" 
	d="
M8.541798,135.089386 
	C9.004684,135.337250 9.022202,135.522766 9.087873,135.983643 
	C9.107619,140.900467 9.079208,145.541931 9.291300,150.589661 
	C8.773993,151.879364 8.016184,152.762802 7.258374,153.646240 
	C6.844669,153.409073 6.430964,153.171921 6.017260,152.934753 
	C6.017260,147.531494 5.953824,142.126404 6.108459,136.727570 
	C6.125226,136.142227 7.403372,135.593018 8.541798,135.089386 
z"/>
<path fill="#323232" opacity="1.000000" stroke="none" 
	d="
M131.617691,179.954636 
	C131.617645,174.982254 131.617645,170.504623 131.617645,166.027008 
	C132.266006,166.011124 132.914368,165.995255 133.562729,165.979385 
	C133.562729,171.492920 133.562729,177.006470 133.562729,182.402573 
	C136.860474,182.906265 139.275818,183.275192 141.691147,183.644104 
	C141.652252,184.002518 141.613358,184.360947 141.574463,184.719360 
	C138.455643,184.719360 135.336823,184.719360 131.822067,184.719360 
	C131.754410,183.305374 131.686066,181.877380 131.617691,179.954636 
z"/>
<path fill="#585859" opacity="1.000000" stroke="none" 
	d="
M58.180473,141.905914 
	C56.870152,142.870132 55.342983,143.690796 55.160717,144.744156 
	C54.759109,147.065170 55.035988,149.503586 55.035988,151.894089 
	C54.527657,151.939590 54.019329,151.985092 53.510998,152.030594 
	C53.089973,148.410538 52.668945,144.790497 52.247921,141.170456 
	C51.922108,141.216476 51.596298,141.262497 51.270485,141.308517 
	C52.378395,139.459473 53.486305,137.610428 54.319584,136.219727 
	C55.855419,137.603653 57.571892,139.125031 59.222523,140.714783 
	C59.302380,140.791702 58.803230,141.469788 58.180473,141.905914 
z"/>
<path fill="#535355" opacity="1.000000" stroke="none" 
	d="
M195.891663,140.939987 
	C200.933395,138.514694 203.490021,139.782944 203.837006,145.034912 
	C204.014908,147.727554 203.868210,150.441620 203.868210,153.146011 
	C203.104568,153.174637 202.340942,153.203278 201.577301,153.231903 
	C201.439255,150.789780 201.261230,148.349075 201.174850,145.905121 
	C201.094772,143.639786 201.052811,141.418442 197.248062,141.543961 
	C196.443619,141.189362 196.182724,141.038589 195.891663,140.939987 
z"/>
<path fill="#DFDFDF" opacity="1.000000" stroke="none" 
	d="
M32.937382,151.039032 
	C33.577446,147.532654 29.141932,143.770370 33.212196,140.579193 
	C34.535557,139.541656 36.707390,139.586334 38.491146,139.136032 
	C38.680031,139.724533 38.868916,140.313034 39.057800,140.901535 
	C37.163277,141.805618 35.268757,142.709702 32.763714,143.905121 
	C34.929428,145.191162 36.502041,146.125015 38.188568,147.126511 
	C36.981514,148.368378 36.039307,149.337753 34.752457,150.653625 
	C33.917671,151.013092 33.427528,151.026062 32.937382,151.039032 
z"/>
<path fill="#404041" opacity="1.000000" stroke="none" 
	d="
M188.993118,147.959991 
	C188.853455,149.585190 188.713898,150.775894 188.574341,151.966583 
	C187.600052,149.453201 184.054260,147.701553 186.390564,144.496872 
	C186.449997,144.415344 184.336761,142.283707 182.989136,141.804153 
	C182.069397,141.476883 180.718002,142.362701 179.559616,142.706131 
	C179.417831,142.131439 179.276047,141.556747 179.134277,140.982040 
	C181.404724,140.609070 184.695145,139.144577 185.721191,140.103348 
	C187.537643,141.800690 187.977371,144.971375 188.993118,147.959991 
z"/>
<path fill="#5B5B5B" opacity="1.000000" stroke="none" 
	d="
M116.218628,147.941635 
	C116.218666,145.348419 116.218666,143.209152 116.218666,140.644073 
	C117.576942,140.856369 118.847481,141.054947 119.806236,141.204803 
	C119.385948,145.372070 119.002853,149.170578 118.619751,152.969086 
	C118.136307,153.078812 117.652863,153.188522 117.169418,153.298233 
	C116.852478,151.664017 116.535538,150.029800 116.218628,147.941635 
z"/>
<path fill="#3E3E3F" opacity="1.000000" stroke="none" 
	d="
M195.556900,140.908325 
	C196.182724,141.038589 196.443619,141.189362 196.805817,141.577393 
	C196.274658,143.628860 195.369278,145.451157 195.019897,147.374435 
	C194.691315,149.183212 194.949463,151.098557 194.949463,153.733078 
	C192.423965,151.027328 191.727386,142.205002 193.359726,140.668976 
	C193.654434,140.391663 194.585083,140.790161 195.556900,140.908325 
z"/>
<path fill="#444445" opacity="1.000000" stroke="none" 
	d="
M148.993622,150.812286 
	C148.139740,151.079468 146.538651,151.009232 146.516830,150.785248 
	C146.254349,148.089096 145.471741,145.066238 146.400101,142.763794 
	C147.021637,141.222397 150.159439,140.695587 152.366638,140.197571 
	C147.500076,143.075485 146.921509,144.646149 148.993622,150.812286 
z"/>
<path fill="#2D2D2F" opacity="1.000000" stroke="none" 
	d="
M36.187508,179.120209 
	C36.187389,181.387024 36.187389,183.199448 36.187389,186.152710 
	C31.334129,181.868317 38.465599,173.194870 28.775658,173.120483 
	C33.923103,170.071365 36.035046,171.762329 36.187508,179.120209 
z"/>
<path fill="#3E3E3F" opacity="1.000000" stroke="none" 
	d="
M127.018768,146.107422 
	C126.323311,144.291077 125.756401,142.835342 125.189491,141.379608 
	C125.715210,141.141235 126.240929,140.902878 126.766647,140.664505 
	C128.676086,144.626190 130.585510,148.587875 132.494949,152.549545 
	C131.879898,152.870453 131.264832,153.191345 130.649780,153.512238 
	C129.482300,151.164169 128.314819,148.816086 127.018768,146.107422 
z"/>
<path fill="#404041" opacity="1.000000" stroke="none" 
	d="
M25.068760,177.190002 
	C25.068762,175.266327 25.068762,173.795868 25.068762,172.200897 
	C28.046152,173.724838 28.521158,181.059921 25.068756,185.037277 
	C25.068756,182.572601 25.068756,180.107910 25.068760,177.190002 
z"/>
<path fill="#252525" opacity="1.000000" stroke="none" 
	d="
M55.942535,172.075119 
	C55.942539,170.001770 55.942539,168.420364 55.942539,166.838974 
	C56.409172,166.841080 56.875805,166.843201 57.342438,166.845322 
	C57.342438,172.874039 57.342438,178.902771 57.342438,184.931488 
	C56.875805,184.972427 56.409168,185.013382 55.942535,185.054321 
	C55.942535,180.891907 55.942535,176.729492 55.942535,172.075119 
z"/>
<path fill="#424243" opacity="1.000000" stroke="none" 
	d="
M214.211548,173.215088 
	C211.566635,176.878571 210.590317,180.107025 214.961243,183.627060 
	C215.109329,184.417099 215.051010,184.686172 214.992691,184.955246 
	C213.362274,183.735825 210.769745,182.805420 210.298828,181.237701 
	C209.272461,177.820923 209.246719,174.052505 213.655838,172.032990 
	C214.048828,172.362701 214.071320,172.611237 214.211548,173.215088 
z"/>
<path fill="#333334" opacity="1.000000" stroke="none" 
	d="
M111.756454,173.627975 
	C110.011276,177.543045 113.806442,176.563095 115.278160,177.687775 
	C116.338219,178.497833 117.815445,179.466675 117.986237,180.542557 
	C118.166191,181.676025 117.014679,183.020844 116.830673,183.425323 
	C115.188446,181.662399 114.181816,179.903076 112.668404,179.106003 
	C109.964729,177.682083 108.178337,176.316376 110.742783,173.184998 
	C111.437065,173.367477 111.596764,173.497726 111.756454,173.627975 
z"/>
<path fill="#3B3B3C" opacity="1.000000" stroke="none" 
	d="
M210.693085,139.857300 
	C210.007614,144.046677 207.157822,148.328751 211.052216,153.018097 
	C205.252197,150.477737 204.919464,144.215424 210.693085,139.857300 
z"/>
<path fill="#E6E6E6" opacity="1.000000" stroke="none" 
	d="
M32.935104,151.264618 
	C33.427528,151.026062 33.917671,151.013092 34.775909,150.970917 
	C36.246387,150.701553 37.345020,150.442322 38.451832,150.224686 
	C42.547218,149.419373 44.284801,151.577911 42.780720,156.369141 
	C41.441921,151.670486 37.927849,153.295868 34.473991,152.856445 
	C33.569748,152.410477 33.248215,152.175919 32.926682,151.941345 
	C32.926685,151.941345 32.932823,151.490204 32.935104,151.264618 
z"/>
<path fill="#D6D6D7" opacity="1.000000" stroke="none" 
	d="
M106.052902,142.023499 
	C106.061562,141.585175 106.070229,141.146866 106.033188,140.376099 
	C109.276070,137.016052 110.736847,141.046097 112.764000,142.121155 
	C113.427017,142.472763 112.820885,145.217545 112.513336,146.746658 
	C112.091644,146.058487 111.951782,145.491516 111.479988,144.508835 
	C109.449669,143.403244 107.751289,142.713379 106.052902,142.023499 
z"/>
<path fill="#252525" opacity="1.000000" stroke="none" 
	d="
M176.954514,174.164291 
	C177.188477,173.021042 177.419907,172.358231 177.651321,171.695404 
	C177.933411,171.771469 178.215485,171.847519 178.497574,171.923584 
	C178.497574,176.259888 178.497574,180.596207 178.497574,184.932526 
	C177.982376,184.944427 177.467178,184.956314 176.951981,184.968216 
	C176.951981,181.527054 176.951981,178.085876 176.954514,174.164291 
z"/>
<path fill="#202020" opacity="1.000000" stroke="none" 
	d="
M145.992096,177.018860 
	C145.992096,174.981522 145.992096,173.425156 145.992096,171.868774 
	C146.473221,171.865448 146.954330,171.862122 147.435455,171.858780 
	C147.435455,176.212830 147.435455,180.566879 147.435455,184.920929 
	C146.954330,184.942764 146.473221,184.964600 145.992096,184.986435 
	C145.992096,182.490906 145.992096,179.995361 145.992096,177.018860 
z"/>
<path fill="#252525" opacity="1.000000" stroke="none" 
	d="
M139.961761,147.987885 
	C139.961761,145.092133 139.961761,142.670715 139.961761,140.249313 
	C140.395691,140.240585 140.829620,140.231873 141.263550,140.223145 
	C141.263550,144.473892 141.263550,148.724655 141.263550,152.975403 
	C140.986038,153.043701 140.708511,153.112000 140.431000,153.180298 
	C140.274582,151.607605 140.118179,150.034912 139.961761,147.987885 
z"/>
<path fill="#363637" opacity="1.000000" stroke="none" 
	d="
M18.853708,177.633606 
	C18.172474,177.993500 17.463039,177.992371 16.455597,177.629761 
	C15.397614,174.932617 14.637640,172.596985 13.877665,170.261337 
	C13.918225,169.726990 13.958788,169.192657 14.024900,168.257172 
	C15.642137,170.994888 17.233824,174.133743 18.853708,177.633606 
z"/>
<path fill="#DDDDDD" opacity="1.000000" stroke="none" 
	d="
M181.387711,153.940277 
	C180.249878,153.057510 179.467621,152.252197 178.571030,151.329193 
	C181.105728,151.329193 183.299164,151.329193 185.492599,151.329193 
	C185.596588,151.722778 185.700562,152.116348 185.804550,152.509933 
	C184.450790,153.012527 183.097046,153.515137 181.387711,153.940277 
z"/>
<path fill="#2B2B2C" opacity="1.000000" stroke="none" 
	d="
M17.244236,150.290619 
	C17.739326,150.444962 17.804619,150.744064 17.931551,151.498260 
	C14.956192,151.922058 11.919191,151.890778 9.176020,151.405792 
	C11.918044,150.779861 14.366240,150.607635 17.244236,150.290619 
z"/>
<path fill="#333334" opacity="1.000000" stroke="none" 
	d="
M111.050873,173.026855 
	C113.282043,170.794937 115.577583,171.142136 118.815918,173.650116 
	C115.933411,173.451645 114.124046,173.327072 112.035568,173.415237 
	C111.596764,173.497726 111.437065,173.367477 111.050873,173.026855 
z"/>
<path fill="#363637" opacity="1.000000" stroke="none" 
	d="
M17.601309,180.524200 
	C17.783903,180.107697 18.087919,180.060516 18.848181,179.944000 
	C19.944654,181.504532 20.584885,183.134399 21.225113,184.764267 
	C20.705414,184.957397 20.185713,185.150528 19.666014,185.343643 
	C19.018253,183.860275 18.370491,182.376907 17.601309,180.524200 
z"/>
<path fill="#DFDFDF" opacity="1.000000" stroke="none" 
	d="
M32.789093,152.267029 
	C33.248215,152.175919 33.569748,152.410477 34.051392,152.903290 
	C34.211498,154.599075 34.211498,156.036591 34.211498,157.474106 
	C33.845406,157.572433 33.479317,157.670761 33.113224,157.769089 
	C32.959320,156.043640 32.805412,154.318176 32.789093,152.267029 
z"/>
<path fill="#DFDFDF" opacity="1.000000" stroke="none" 
	d="
M40.160240,147.116943 
	C39.627155,145.900085 39.402718,144.759415 39.178276,143.618729 
	C39.722172,143.594635 40.266068,143.570541 40.809967,143.546448 
	C40.696274,144.762009 40.582581,145.977554 40.160240,147.116943 
z"/>
<path fill="#DDDDDD" opacity="1.000000" stroke="none" 
	d="
M178.785919,148.808044 
	C180.061920,147.998062 181.337936,147.188080 182.613953,146.378098 
	C182.871933,146.855301 183.129913,147.332520 183.387894,147.809723 
	C182.205414,148.228943 181.022919,148.648163 179.400879,149.020386 
	C178.961319,148.973373 178.785904,148.808044 178.785919,148.808044 
z"/>
<path fill="#E6E6E6" opacity="1.000000" stroke="none" 
	d="
M40.627533,157.340851 
	C40.484661,157.149887 40.506287,156.839767 40.527908,156.529633 
	C40.615948,156.760315 40.703987,156.990997 40.627533,157.340851 
z"/>
<path fill="#5B5B5B" opacity="1.000000" stroke="none" 
	d="
M215.356155,185.041382 
	C215.051010,184.686172 215.109329,184.417099 215.288727,183.753159 
	C215.979614,183.323151 216.549377,183.288010 217.332947,183.632538 
	C216.937714,184.383957 216.328659,184.755753 215.356155,185.041382 
z"/>
<path fill="#DDDDDD" opacity="1.000000" stroke="none" 
	d="
M179.044830,149.060272 
	C178.920990,149.108994 178.713654,149.070801 178.646118,148.920319 
	C178.785904,148.808044 178.961319,148.973373 179.044830,149.060272 
z"/>
<path fill="#FAFDFD" opacity="1.000000" stroke="none" 
	d="
M212.958557,86.405449 
	C212.873596,95.846558 208.655701,101.916801 201.275436,103.671806 
	C194.160843,105.363640 187.182495,101.976768 183.922806,95.249863 
	C180.167007,87.499130 183.550156,77.959267 191.410294,74.136536 
	C198.735580,70.573921 207.834503,73.986565 211.543945,81.758865 
	C212.177719,83.086800 212.480209,84.572845 212.958557,86.405449 
z"/>
<path fill="#F1F1F1" opacity="1.000000" stroke="none" 
	d="
M13.516039,170.230865 
	C14.637640,172.596985 15.397614,174.932617 16.101036,177.640747 
	C14.117157,178.013229 12.189832,178.013229 9.289037,178.013229 
	C10.767641,175.024628 11.961026,172.612518 13.516039,170.230865 
z"/>
<path fill="#FCFDFD" opacity="1.000000" stroke="none" 
	d="
M105.718872,142.153305 
	C107.751289,142.713379 109.449669,143.403244 111.067993,144.354950 
	C110.518097,144.732986 110.050507,144.937454 109.578041,144.949432 
	C107.942192,144.990906 106.304642,144.965424 104.186256,144.965424 
	C104.673790,143.874359 105.029312,143.078735 105.718872,142.153305 
z"/>
</svg>